<mxfile host="65bd71144e">
    <diagram id="NnUx9teNwuU17QfhBeeZ" name="第 1 页">
        <mxGraphModel dx="991" dy="619" grid="1" gridSize="10" guides="1" tooltips="1" connect="1" arrows="1" fold="1" page="1" pageScale="1" pageWidth="850" pageHeight="1100" math="0" shadow="0">
            <root>
                <mxCell id="0"/>
                <mxCell id="1" parent="0"/>
                <mxCell id="2" value="" style="shape=image;verticalLabelPosition=bottom;labelBackgroundColor=default;verticalAlign=top;aspect=fixed;imageAspect=0;image=data:image/png,iVBORw0KGgoAAAANSUhEUgAAAZMAAAE0CAYAAADpBd43AAAgAElEQVR4nOy92XMcR57n+fE48kYm7osAcRDgTRZJUSKl0lGlkqqk6p6umrHemp7pst61MRvbeVizfZy/oZ/6ubu3zeZhd3p2d9a6Z6a6Si2VSlLpoEqURJHgBRAgcRF3JpD3EYfvQ2YEMhMHAVC8oPjSQCQyPDwiPNx/P//dQkop8eDBgwcPHh4CypO+AQ8ePHjw8OzDYyYePHjw4OGh4TETDx48ePDw0PCYiQcPHjx4eGh4zMSDBw8ePDw0PGbiwYMHDx4eGh4z8eDBgwcPDw1tu4NeCMo6hBBP+hYeGbz3/HShfq557+dpxV5pwv58nxuYiZTS/TFNs2YibzWppZQIIdxF4LRzvt/sPKdt/cKp/nvz61Udt+29v89dQaAoj1OI25+TbT/j26T362tJIuX6mtzQrtzi27vwdveEgA1r8+GuXX7GzRewLD/4Q/W/HSTVNEuUryV2uWmUu6cJUgLCRkp71+c+7diUmViWhW3bZLNZLMtCURSXMdj2xkFwXoDTzoHT1lkM1S+qnmls9xLX+xSIimbOYVL7TWJ43LvQ6k2Ah71DIl3aupd36DAFIQSqooJYXz8CUcM0nLkvbRvJ4yFK5XUnqr8oM5iHwHbjVD2eu8IOb8myLJBlmqUoCkIpX3VXkOrOL1gNYe3+Wmy9qdjyMlts2B8VRHU6Feejbds1kkm1dLEZMwE2SCXVxL6a6LsLoeqnGtV/O4SumpkoQnEOPuSj7xLS/W9/wWMk3x72uBGQcp1VVFYJtm1jWhaqoqCqak17oVTWmm0hkRvWzKNBrRQhviVmsi072cNwlh//wfdlmia2bZfHV9NQBNibSAtbaVbKx9Qdj4Ety/cmJQhh72nZbUV7t8Lj3ii6zGQ7VdSDsHPJYnf9evDwXYRtg2lamKaJpqroulYvFDwm9e7+hWEYWJaFqqpomvbYaJK0QexTtycNNkoDznc7ZQK7YSTV3z/sCyz3LbzNtYd9BSFAqTZRiG0EyOrl5a2DHWO3KqNvDWVD1758V9rWItzen7ZerVV/rNpA/6Brbcd0PAnHw/6EBCEBu8JFtqA+dWYFsU+J1KOAowJSFOWx0JEaRyYeXkX4NGLPAle1zaNYLLK6uoppmsBG43qxWGRpacnVU2YymS29vxxYlkU6nWZxcXHXukIPHp5l1DuqbKktqEgszs8+pE+PFOWhfLSDJqXEtm2KxSKlUmlfOg052DUzqWYijqF+ZSXOP//zP7O2ltzQ3jRNbt++zT/90z9RKBQolUrcuHEDwzCIx+NkMhm33+pFUyqVuHXrFv/tv/03MpkMpVKJYrFYcRl8yKf24OGph0AIZcPGzDRNisUShmFg22XPy1LJoFgsYpoWlmVRLJbK3kqUCaZl2ZVzzEr78loqn2M+GXXPE8a653HtsxuGQaFQoFAouGO0182sM665XI6vvvqKa9eukcvl9u14a9t5K1TDaVMoFLAsqzyxDRPTssjnC7zzzrs8d+55WltbatyIV1ZWeP/99ykWi6ysrBAIBJieniYYDHL37l3OnDlDQ0ODe43qndjy8jKffPIJx44dIxAIEAgEOH78JKri2Uk8PL2o9czaSwPnoABZ1UjC3NwCk5OTaJrGocFBCsUC01MzCEXQ399PqVRidnaWgYF+ent7kbbk/uwcd+/epbGpkcbGKPPz86TTaYQQBAIBmpqa6OzspLGxEU3bPI75YRx0Hhd2t+uvqBGrYBgGo6OjzM3NucZ5y7J4/vnnaWlpqWnr0E3btt3wCVVVazbEzuelpSX+9m//llAoxH/8j/+RUCjk9rGfoMH27m/VsCyLu3fvsbi4yOrqKlKC3++npaWFQqHA2toa9+/fR1VV2tvbyefzfPjhh9y5c4c/+ZM/4dKlSwSDQbLZLF9++SU+nw9FUbBte4PuUgiBpmnk83lu376Nqqp0dXVx5MhRNM336EbEg4enAdLGtm1sRXFNJpZtc3digv/893/P2toaf/qnf8rq6irvvPMOhw4d4k//9E8ZGxvjf/yP/8Gf//m/5eDBXmwkX1z+gr//+7/n6NGjDA0d4rPPPuXevXsEg0EURaGxsZFXXnmFt99+mwMHDjzpJ39iyOfzvPPOO/zud7+jVCrh8/kwDIO//Mu/pLW1dT3upyrcIR6Pc+fOHdrb2+nr68Pn87n0zIGjhSmV1iXG/Qh3G7ITLiltSSaT5e7EPX7zzm94/vnnGRoa4v333yedTjMyMsJXX19GSslf/MVfUCgUePfdd2lubmZlZYV79+6Rz+cZGBjg3LlztLe3Mz09TWNjI9FoFCj7UudyOTKZDJlMhsbGRl544QVisRidnZ34/R4j8fB041vZbwoo75ztcrQ2Al3XOHxkmMHBfn7961/z4YcfkEqlicfjvPXWWwz093P16lXm5+bJZrNuV6lUirm5OTo6OkilUiwuLlIqlThy5AhSSm7cuMHi4iKDg4PfaWYCsLa2xsrKCocPH6avrw8hBLFYzD1uGAaKorgS3OjoKH/913/Nyy+/zC9+8QuampqQUmIYBqqquoHcmqahqiqGYWCaJrquP6lHfGTYNjdXPVRN5/nz5+no6ODTzz7lwgsXOHxkmI8+/IiGSAO9B3v4+uuvuHv3Ln/+53+Ooii0tbXR39+PEIKuri5yuRxdXV0sLS0xNTXF5OQkfX19RKNRpJQkk0k+/fRT0uk0S0tLhMNhbt26BcDrr79OMBh8JAPhwcNjg+OgtQccOHCAN954g4mJCa5fv44QCi9//2Vef/2HNDY2IqVEURXi8QR37oxjmRaJRAKoivYWgr6+Pn75y18Si8X4m7/5Gz777DPW1ta2vuUdai+eJB5WbWTbNkIIdF3npZde4s033yQSidDS0sLq6irz8/MsLS2haRodHR3EYjFGR0e5d+8eLS0tTE9PEw6HSSaTjI+P4/f76e/vd/s3DIPLly+zuLjIkSNHaG1t3RCQ+ixjx8ykbAORKAqoqoqUNql0ikKhQE9PD0PDQ3z/+y8xMzNNNpslHA67jGN5eZlQKMSdO3fo6OigubmZ0dFRFhcXOXHiBM3Nze5EyGaz/PrXv0bXdU6fPs3p06cxTdM1innwsC+wB7rnEPOhoSFOnz7N7dtjhEMhnjv/HD09PSiqUk7FAty6dQshBKZhcuvWLYrFIkrFoC+EIJvNMjY2RigUIp/P09/fv8EusOGW95mOvx6OakpKyezsLNevX8fn89HX18fly5e5du0apmliGAYNDQ385CdvMTk5hWVZLMwvMDY2Ri6X56uvvmRtbY1QKMQPf/hDdF1HURQymQwffPAB+Xyen/70p/zxH/8xsVhs34zrjr25pATDKDE9PcONGzeQEu7P3mf09hh3797lZz/7GaZpMj8/T2dnZ4XhlN2Cc7kcgUAAKSX5fJ6JiQkaGxtRVZXe3l7C4bB7nVAoRHd3N21tbcRiMcLhMH6/3zUUlu+lNvnko/zx4OFJYbN0GFJKlpeXmZubQ1EEtrSZn58nlUohbYldmbMHDx7kwoULXLh4gf6+fvx+v9unoigsLy/zD//wD/zVX/0V9+7d41/+y3/JmTNnHvszPm1w1n21xPDJJ5/wn/7Tf2Jqaoqenh7a29sZHR2lqamZV199jUgkyvnnX+D8+Rf4r//v/8d/+S//D//iX/wL/sN/+A8MDQ25fQWDQV555RVWV1f59NNPt5UEn0XsWDKR0mZlJc77v32f+YV5XnnlFb53+jThSJizZ8/Q03OATCZNOp2mt7e3co50vSKcH13X0TSNSCTCL37xCzo7O1lZWaG5udl1W3zxxRfRdZ1wOEwkEmFhYYGmpiZu377NsWPHiEQi7n3tF67uwUM96gN/hRAkk0k++eQTrly5Qm9vL7lsjg8//JDhoUNcfPFFoJz3qb//IBcuPI+0YWJiAp9Pr+TxKhv2e3t7eeutt7hy5QojIyPE43GKxeITfNonD8eorus6J0+edNVc//iP/+jaOAKBAOFwmJMnTxKNNrCaWAXK2hqfz4fu0xFCkEisEo/HXScH27bx+/0IIfatEX5XcSa6rtJ7sIc/+qOf8hd/8Ut6D/Zw48Z1fvbzPyGdTjExMUE8Hq+RIPL5PG1tbRw6dIhAIIBlWYRCIdeN8ZtvvuG9995z/bs//vhjGhsb6ezs5MaNG0SjUZaXlxkZGeHDDz/k448//s5Peg/fTRiGwddff83777+PZVm8+eYbXHzxAgsLc7z32/e4d+8uIFHVdc9IW1pIWc5Sqyi4NpNqghmNRvnggw8YGxt7os/3JOFoIZw8XU4MHZTVikNDQ64azDAM0uk0diXRphACaUsCAT/PnTtHe1s7v33vPf7u7/6Oy5cvUywWa9yGYd0+s582wzuWTBRFoaOjgzfffBMpJZlMhuvXr5NMJmltbWV0dJQvvviCWCzG0aNHgfJOqq2tjZMnT7qqr/b2dg4ePMivfvUrdF0nk8kQiURcxnPlyhXOnj2Lz+fj5s2bnDlzhtbWVj766CPOnTvHp59+yunT36On57vtdeJhv6MuHZGETCbL/PwCkUgDx4+f4OLFi6ysrLC8vFzW21ck+JMnT9La2lo+TUra2to4deoUAwMDdHR0cOzYMUKhEOFwmLNnz7oSyn7dMe8UmqbR39/P2bNnaWtrc9VTQ0ND/Nmf/Rm//e1vuXHjBpZl0d3d7arejx8/zoEDB9B1ndd/9DqKovLhRx9g2xbBYJBwOMzRo0ddw/25c+fo7OwkEAg84Sf+dlGTgn4ncAJ1EokEExMTHDlyhGg0SrFYZGqqbIxyBq5QKHDr1i1aW1uxLItvvvmGEydO0NPTwzfffOO6y7W0tNDT00OhUODzzz/n9ddfJ5/P8+WXX3L48GEikQh3796lt7eXy5e/4vTp03R2tj+qMfHg4YlAyvWMwKZpYRoWmqaiairIchzESjxOPp8jGo3R0tJEsVh0YxgaGhoQQpDJZGhpaXE1BMlkkng8jt/vx+fzkc1m0TSN1tZWdF0nkUiwtrZGW1sbjY2NT3QMHhdKpRKmaeL3+12mUc7msUI2myUWixGNRl3bL8DKygorKysIIWhvbycWi5HPF1hcWCIai9Lc3IiqqJQMk+npKTRNpbOzEyEEi4uLCCEIh8PE43ECgQAdHR34fPsn1GHXzMTZvTiioKZpGyJPnaAdp231y3L62CrS1hH/nGtslrl4P6dx9vDdRQ0zMUwMw0TXNVRN2zTt/E5UJQ+bTHW/olQyKszEV8MwNhsHJ1ixvtqqdPJwirrvqpo9aPz309jvKs5EAkq1X7RtI6ldBLA+6JuVuhVCoKlbX3a9ilzZXx7WX4jTn8dIPOxPyPVc8wKkE7DoaLrqCNNOSklv5g1W//1+IWa7xw4CtaWsGeeajOibDP+DaFM989hPY79p2V6gUiq0drilWE+QJgQIVcOyHQawSe9SUFVemcoKcfvdXCYS5X9K7TdOP+vf1X/w4OHZxbeV+2qrGkT1ee881Obm2mmZi91KGDs9fz9gSxHBSagpRf2XlNmM+7nCeOT68fqOhJOvrtKfO55yI0NxUkdUX6/6s3vcES8fUyzI44oA3s+TzcPm2IqR1GcN3nRu1CWN3DBP3R2hcDeBzjXrMxJvhf05JzfJ2b9V2ZgtxmavEsbjjl97XO9vS2YiBHX1pcu7GuEc3HDCNldxjgmnbknlS7HxNFG+8JZQNkhBj2egHkftg/XreHh2saOUwOutpbtLqkjf62tEoCBlOfNENUQVc6i+3DqjWF9DFeWA21aKjWqzHd/jvkF57KS9rmlxS1ts+to2p0nlsXx46XG/YAMzcQbHCSCsffCtFYJbiok1f5T7sm1Z3nWxuxRFjqrscb2Mmp0b+3cS7NfnetwQVRN6R4lT2ZhlwY0PsW1sy3bzadU2cv+rM8yvq7S2hs3uVt2GCz/DEO6PaRoYJQNbglZJDyW3GBexVeWxemPxjvEw72D3eFzre2s1l5QUCgXXk2Gzaoj17euxlQ6xPh3KTlGWjFRsaT+edyGoKa+51WT7di71ZBbqZgTNw94gEHUbkO3H1XnnTrtqm4ZTJ0MI4ebb2qKTjeqqKpXwRmylj34QHF31k4UQovxcu3oExT3XgWVZlQy+VsWby9pDv9U3Rq1Quk0/Qtmeln5bqJ5LjwNbugY7pSadXDUPshlUt6u5QN15rrfWNi5x1dfb2EapnG/vScTcLZ6kvlg6hqtHgHXDbPkaj+s5H+UzbcSTKKImqmjJg55z3XjoOrVQJpbrzESpiWh3lpJ7jfo1KR70zLsf+/L6rb3+o8a3+97WJRKnX9MwMU0L3aejqgpUUs242Mlzit2Ph+us9wTIyiNnXvXMxPmz7MOuVD389k9f7XK4E9/pnTKT+mtXn7cV09mJb/1e2nrw8DggZbk8r2maaJpWTvFRb2B0bCCVP1zJ1rVPPs47fvZgGCaWaeHz6W4IQg2qJLyKy1Gtw88DmfZ3D1vaTJSKaL3dgNWrq5xCMJsGGtYxiAd5SGzXvtrNcTNGspMArc2kpb0EdtUzt/rn8OBhN9g0c7UrzYkaI33ZS0ZW7MO11mOxpTH56cRWtqNHdz3bjeOpPQAIWRPfA1Uavordt8pi5aGCbb25HoTtVFY7/Xuz61SXvazPnOpgK7vLgyZhPbOq/rzZd87n7RhkdRvPn9/Dw6B+vleUM0CZYdhASZTI2XkM2yire5HYddMtqASJiDAa6hOzx+0GT8N6saWJxCZHgYJVxMSuUVcKAClQhCCoBgmLMOrucuXua+wqAr4almWRz+cJBAIkk0lM06SjowPYnGDbtk2pVCKXy9HY2FjVpjZwSMrayF7Lskin00Sj0Q2RqI4k5LRLpVIIIdycRFvdt1Pf2VEjONd2GIRt2+TzeXRdx+fzUSqVyGQyNDU11RTQqWckxWIR0zRrUuR78PBQqLKXW0JStE3u5We4k7pLspREyhIKNqaQWEIiKg5GveGDnImdok1vBp6cg8ezhJLIky4kuZm+w0J2ibxiYYmK7zA2CFAtBQWVDr2DC23P0eiLPbDf7wr2xEwsy2JpaZEbN25y9uxZRkZGWFpa4u2333aTyVXv0p10zsvLy3zzzTe8+eab6LpeNji6O/xycruVlTgAnZ2d2LbNysoK33zzDT/84Q/dfoUo1wRIJBJu5s1kMsnly5cBOH/+PD6fj6ampppayw7BX1xcpKuri8XFRTRNo6uryz3u9Hv16lWOHTtGV1cX8/PzXL16lR/96EdIKWloaHDbOwzFNE3u37/P3NwcFy5ccIsRefCwW2y1SzekwXx2nkv3P+NW8jamaoFiokiJjUBKgW5rKJbCXHCeKGEamxvwKfsnmeCjRJYcV+dG+P3CJbIijxUQ2BXPK81UEVKgWxrStBnJXWfouX4am6N46q4ydpebq0I8DcNkbn6B9377LpqmMjJyjXQ6SzKZJBqN4vP5XIK/tLREMplEURTu3bvHBx98QFdXFw0NDUQiEbq6uhCiLGHE4wl++9vf0tbWht/vR0rJRx99xMTEBAMDAzQ3N9Pa2oqUEsMwWFhYcJnF2NgYH3/8MYqiUCqV6Onp4fTp06iqimmaJBIJstkshUKBmZkZisUiExMTFAoFt6aDYRhMT08zMjLCxMQEkUiERCLhMpczZ86gKArhcNiVUEqlEqurq+TzeUZGRrh16xYdHR2EQiEikUhNbZenQZT38OxAyiqNvoS0SDKyeoXfZd9hpmUGvTGArdkICZFclGalhQP+btSSwtX4N7RkGhlsGKDF34wmK+7F3hTcApIZ5vn98iX+EPkKuxVkwEYKG4lFe7KLA5EegrqPleQyU4k5EiTotw9WXLe9gd0yN1c9qu0AmqbT1tqOIlRmZ++TSK7Sc+AgPT09SFtWvEzKHiljY2PMzc1RKpW4dOkS09PT/OY3v6G/v5++vj66u7sRQlAqlRgbG2NychIpJR9++CEdHR3cvHmTgwcPcu3aNVpaWvjBD35APp8nkUgQDAZJp9MYhsH8/DylUsmtbKZpGul0mmAwSKFQYHx8nLm5OYQQLC8vV3zMTbfQTTQaJZVK8c477zA1NcWrr77K7Owss7OzdHd3A2XG4aTfd5haMpnk448/dtPtp1IpvvrqK4QQdHV18dprrwHrdiCPoXjYEwQURYHl0iJz5jTjxVvYcQVDK0di98V76Y12c7D/APPFee6XJpnXZ8mYGRp9sXVmUunLQz0EGXIsWwmmivdIrSWxVYkUEksanEv6uNh0ERHMc336HtPFadaKCQzbQFFUb0jZxptrO6iqcMvqqpqKrvmwJZiWjazYIaQo2z4OHz7M4OAgo6OjZLNZAoEA7e3t/NEf/VFNcRjDMIjH47z00ktMTExw48YNLly4wM9//nN6enooFouMjo4ipSSVSvHFF18Qj8dpb293axM0NDSg6zqpVIrx8XGSySRvvvkmgUCArq4ufD4fnZ2dLC8vMzAwwOzsLGNjYzX1sSORCG1tbRiGQTgcpq+vj+bmZpaXl7ly5QrZbJaLFy/S2tqKEOV62qFQCMuyKBQK9Pb20tfXR6FQYGlpaUsHAg8edgzX61eADdKUKLZK2A5jFG2KskhroIWh5kOkRZJrq1eI55chbCOqo629KViD+o2zBGwpEaZNQGroph+jaGCrGkOdAzQFGvk48QfuZscpWGZtXIqH3au5MpksybU1Eok10uk0q6tr5IsG8wuL3BodxczlODQ8RDQWQ9d12tvbWVpa4t69exw7dox8Ps+BAwewbZtQKFTTv6qqDA4Oks1mWVhY4MCBA24ZzcbGRlfqaGxs5ODBg6TTaRKJBNFolFwu50o5q6urHDp0iL6+PgBX5TYxMeFOoOnpaaampgiHwwSDQQCCwSB9fX1MT09jmibj4+MUi0WGh4dpbW111WyOowFAS0sLb731Fvfu3ePevXu8/vrrnD9/nsXFRa5evfpQL8fDdwMP9EZ0s3lUDOyGQkhp4HTkJNnVFLPZ+xzvOkJHsJ3frbzLVeMyOT2LjYGQshwl4fbhwcHGsS5H+QdKCh0N7RxSjrIyH0fqJU61HiWdX+Xq6tfM+KcIFWLY0qI68/B3HbvyaysbxONcvTrCZ599xvLyMgG/n67ODhLxOJ9f+pw7ExOk0xn3nHQqzeXLl1FVlTfffJOGhgaOHTvGu+++y9LSUo1LbbFY5MaNG4yOjhKLxRgcHGR8fJxLly5RKBRc+0ggEODEiRMMDAwQi8VoaWlhbm6OQCCAlOVqaZqmcfjwYQB0Xaenp4eDBw9y/fp1rl27xieffIKUkh/96Ec1TM2yLGzbpqenh4aGBjKZDMvLy9y/f5/Ozs4NdhAoq7/m5uYAGBgYcK9Z3c5LWeJhM1QHzW7qPl/zlUBQjtYWWHRFOhj0D3I8fJyB5j4WsrPcWblDzs5jYZdVzpXz9pxFZd9CUM9hBRJsG8s2EargeOdRTh88xYWBCyhBwdeTX7KSi2MIC9uWtTYtD7tjJoqi0NLSQkdHB2vJNYaHj3L48BGeP/ccZ8+cJRIJc+r092hubsG2JaWSwY0bt5iZmeHMmTMYhkEikXAllX/6p39idHSUUqmEEAK/38/w8DD9/f2Ew2EaGxv53ve+h2mapNPpGs8sJ91LPp9nbW3NrS/f3NxMIBDAMAygvFhzuRxzc3Nks1mi0SiNjY0MDQ2RSCS4ffs26XTaJfimaVIoFIjH4+RyOXy+ciW2lZUVrl69Sj6frxkTp/b2N998w+HDh2lubkZKiaqqRKPRb+EVedjP2FFMUuWwgoIqFYS0yGZXmb0/Rb8xyP/U9K+JKmGuJP7ATGGSrJ7HwKQcfOKJI5tDbMg1piDBMjHtElP377K6sMKx6GFeDL7MePoOI8bXrGpJcr5SRXkoPGZShR2ruaSUlEolLMvE5/dx4MABTp06hWEYlEpFBvr7uX79OjMzM0TCEdra25DSIpNJ8+KLL2JZFqOjoywuLjI7O8tPfvITPv/8c27fvk1XVxe6rhONRmlpaeHAgQMuET948CCRSIS1tTVaWlrcezEMg1wuV06Ep6o0NjbS29tLOp1mcXHRTW7muPpOTU1hGAbPPfcca2trHD58mM8++4zr16+j6zptbW2uF1ooFKKhoQFVVV1jvqqqdHV10drayvj4OD09Pfj9flKpFDMzM7S1tXHx4kVs2yaZTLK6ukpzc8XHv2Jb8eBhJ9hK7SVQQKrYlqRYKnI3c5czB55DjShcT9zgdnKUHDmkbWFbajnADgWPoewMKgLFkpQokTIyXJ68jG7rxLUEXy9/zXJpBUu3yiEnlkQTCopX9tXFrmwmhXyRTLocvDc0NESxWCQej4MEy7YY6O9neGgYn89XsYkE+fFP3nQDASORCDMzM7z99tuEw2HOnz/vLhzTNOnr6yOXy9Ha2sqBAwfchVQsFpmcnOT1118H1uNBIpEIp06dYmZmhp6eHk6ePEkikWBiYqImgj4Wi/Haa68hhGBubo7Z2VnOnTvHj3/8YwzDYGlpyTXmx2IxLly4wHPPPUc2m0XTNLq7uzl+/Dhzc3NMTEwQCoXcwMt4PE40GuXll19GCOG6Ht+/f58f//jH7v16BngPDws/QVr0dmJWM4FMiLSa4uPlj7ixOMKYNcaiuohUJIG0j6gZpaWxFb8arCV4z1ialUcOR/0nIEaUbq2LoBEhZWW5W7jL3OgcgUKQhcgKeV8Rf8aPHx/RtQhhJYyq7Dnue99hxyMhhCAai9LQEOH+/TkymTS65sPn86FrGsVSEV3X8Qf8dHS2bXp+c3MzFy9edNVVDpNRFAVd1+nv799wnqIoxGIxenp6UFW1pq8f/ehHFWnJIhaLoaoqtm0TDoc5ePCge74TZOgkz/P51oO4dF13DfeWZXH48GFKpRKKotDR0UFfXx8HDx6koaGBiYkJ16mgsbGRYrGIz+djaGjIZYqaptHS0uJKTJ6txMNesLpg64EAACAASURBVCE3l4AQAU60HuXl9MuU5gqsGQlSZoKMTKAqknbRCqgIoXCi8Shnms/Q4ItV7Cx4TOQBaKGDCwdeZnz+HuOZOxiyWE5go5m0lprAAN0KIGyFXvMgjWozqng20tU8DmyZgn47SBuEUv5t2RaaproZTJ0N+GYJGB2bhBPJDrt3md0so7Cj0lIUBcMwyGQyrppqs7alUskNiqxOj1J9P5sNS33iSSeyX9f1LZ/n25RKvAzH+xvVc66sPi6n/fHp5c1PiRJFioxZt/lq6Svm0rOUyKGiYCkSS9iAgiJUTrQe5wex1+mgGxUFRSoeM6lCqWSUswb7fahKeWxy5EnbKT7JfMSd+Bg5M4cUEkWRWMICIdEsH4pUGfQP85P2t2n1t3rMpIJdMZOtCGz5GCDLTKa6bT1xrieuD0on/6D72SwPWP3x6nvZLtNxNWNxmIVjIK3Pw1X9nUfcPXwb2JyZ6OuStASscooPQxrkyWEpJiAQct3YLoTALwIE8KN4hG5TOLFpfr/f1Xg4EmCRHIYsUpAmUgEFUYnXAUWqCBSCIoKO7o1uFXam5nKyX2+7a8fd+WyXRXgrwrsXwrzd/WzXp8M4qo9vdr/OT7XxfC+MbrfY7bmeTWZ/oH6zU/l2w58C0FUdVYYr0ogzL8V6fKJT/N3DltiwZip/augoqGiissmsKnemVFSGKl7Uez12xEzkFtX4tkoLX51Cfq/YCXHci9pnJ5KQ83e9zWM3RPthiPt26fY3a+cxkqcHe7GRbSap136uer9KOdpESFCkjlZvUK8yKNef6mFnUKWOKkGvCtPZEt74unggM5E22NJGVql8NiPi1UR6szTtu8VmRHw7u0T17wdds7q/arXVg+5jszaPysD+IKmr+pjHTJ4OPOxcqJ6H9SURhFiXOjaeWEXT5LrauVzTfOt72k/z5oFZBDZpXzO2VGknKkHtTi/VNU3W1S+UjfN7eOX7adyrsSUzcQbassCyTKS0tgywqp74W9kh9oKtbDTVi2w7bHa/W9lyNlcx1Pa11T3uZXI8SNrYrP120dIenjzqN0A7wVbv0rIsLMuqI3jbnOuqt6ASy10p7SSrSmvtHY97zj3qrBGGYbgONGWV93o8jpAVS5Mr3VWnD3DomcSu5OZav8+dv/P9iAcyE2lvfLEP2i1blgXUelrtFfVE3mFOzkTYzilgKwaxE0P/dsb9B0lKu4HnOuwB2DC/nPm93frZTHoV4NI06aYLKcdql0ni3ubb4yaAe1kXO12PThhAdSZv2zarOqoO9JR1n22cMd0g+dUwna2fZb9uBjd4c0kpEe7UwxWbndrH20HKsiH+21S/bCcxbMZMnqYXtRMV2W52sNv1v1c8TeP1rONh7SXV/TgxUaqqoWuaa3ivnFXVuO4rWSFwwmEhovK/w0z2hsc5Tx5WKtmJhsEpJ1HjzeV2UM3YcUMe6p9eynrWvLMRftzr7XFdb2MKegRIiVAcJrJ+5IGoMBP3jM12TpuonXayk9jN948Km0koW91Hvf57q+M7WaTbqcQ8RvDsYzsVliIEQnGSO1KhVVWqrc2mhhAgBI6Dl6u+ecB97Fb1+qjwbVzvQc/iqOI3XUNVgsiWtyLYJL5kZ/f9uLURO7EHfxvYqOaqURbWojruYlOI9V1FvUSxFUN5Vojhdl5fm+FBqrR6NdpW/W3W7kH35WEfQTgETbgaF7uiYikb5csqFwfuXllUCOUOGQk8O2txJ9ipEb6GGbtSnmNyr7Y2Vdao21DZc7Di0zLO3/Z9bGQm2zCreuZgVgph5fN5LMsiGo1u6Tzi6ClzuRyRSKTKMF99wsaHs22bfD5PKBR6oI3DMAwKhUJNtt6tiO1m6rHt1GmWZdWkgXHOqW5jmibFYpFQKOTqYuuZqG3bmKaJruuYpollWW6RsK3clbdyZtjs2TwbzJPFt+WMUW03cbyLLGFRkkXmS0ssFeJYplUhaGXmIgUIWQ5gbIg0cCDYTZQIQopyVMTTQcOeCpQ3xUq1VhCDIjkzy3x+gUwxi1Hh1TY2QpbtwIosa278aoTD0UNE9BDewJaxqyxl68Yqm3Q6zfj4OIcPH2Z0dJREIsErr7yC3+/fIL04RsS1tTWuXLnCK6+8UiGgEqdamRAC0zRZXV1DURQ3lXsikWBsbIznn3++JgU9lBdcsVjENE0UReHu3btMT0/z4osvouu6S6RLpZIb8WpZZa80J3/WVkb2ahQKBRYXF+nv799S1QWQTqe5c+cOg4ODtLW1bWgjhGBtbY3Z2VlOnjzJ6uoqi4uLHD161GUY1XnDnHOcDMmRSMTV7251v0/LrsfDzrEj1akEQ5RYyM3x3sLvuJq6Ua4K6DikVAifz1LQbIWWxi5+0vEmp8JH8SkaHsGjzpYukE7WgMr3GZHkxvIIHyx+wkoxQTEgsBSwsVBsEwWJYvqRJgTNKP/byX9HpLEPb2zL2HXKSynLdc+vXbvGb37zDm+//TZXr37D7OwssViMoaGhmlTx1S7Dq6urfPbZZ5w/f75CNNfdiAFy+Ryff/65m869VCpx+/Ztrl+/7mYYdiScRCJBPB4nHo+TTCaJxWL84Q9/YHV1lWAwSDAY5Pjx4/h8PsbHx7lz547LsCzL4u2330bTNJe5hMPhmiDFavfjlZUVvv76a7dCpKZpLmN1arQIUa4t//XXX7O0tMS5c+fcAllO7q5CocDo6Ci3b9/m0KFDrK6ucvXqVUKhEKlUiqamJvr6+jYQklKpRDKZdCWe6nfhwGMi+wPbvUcDk6n4DLcWb5NoiBNujIBWnoea5UOzVSIiRFD4mF2ZYZTbDPUexO+PbjTUfxex4dllWaVV0RSuiTTfTF3jHlNobRpWUMVWQAqJr+DDL3zE/DGMosnCfIKcmcWWNsq6ceo7jV0xkzIht0mupbl3b4r5uQW+/PJL5ubuY1kW8Xic7u5ul5lYlkUymSSbzWLbNsvLy2QyGcbHxwkGg4RCIQYHB4GyqFkslJienqajo4NMJkM+n+err74iHA6zsLBAJBKhubkZy7JYXFxkdHSUfD7P3NwcXV1d5PN5zpw546q8HEaRSqX47LPPOHToEJqmMTU1RVdXF0IIt9jV66+/jm3bLC4uks1m0XUdXddJJBLMzs4yNTXFyMgI+Xye1tZWjhw5AsDq6irvvfcejY2NLqO6e/cuUkqam5s5ffo0uq5jGAbj4+NcuXKFWCzGyMgIwWCQtbU1bt26RalUIhKJuGNt2zaFQgHDMMhms6yurrq15qWURCKRGtWfZzvZf3DfZ+VXjhz3i3NM6VNMB2cxMTGlhRAasUKMVtHO8ZZhdFVnPjXHjDFFxkwR8YXwySqJ15smFQeFst1DCEBKFmWcu/Yc49EJsnqOkmVgS4kioD19gEPNQxxsaWAhPsdieJaUXMOyTZR6b7DvKHYtmSiKQmdnBy+99CK3b90mHC4Tta6uLn784x+jaVqNBHHr1i1mZ2exLIuRkRFu377NBx98QE9PD93d3QwODiKEoFQqMTMzQ7FYZGlpiVQqRTQaZWZmhkOHDvHll1/S3t7Oyy+/jK7rDA4Ouoxlenqanp4ebt68ycWLFxFCEAwG3WJXQ0NDdHV1EYvFaGhoYGVlhTt37tDe3s7MzAxra2u89tprZLNZPvjgA9f+EQgEmJqaoqOjg+bmZiYmJpidnaWxsZHDhw8jhCCbzTI5OckPfvADN229oiioqkooFHJVc2tra3z22WfMz8/T2NjI1atX6evrwzRNotEovb29NDU1uQSkUChw584d7t+/j2EYrKysMD8/TyaTIZPJcOrUKZ577rlvdzZ4eIogaj23KOvuS1aJbDFLPLWCrdvYukQKiZoSHGoepDPURjK1QrKwQjFQwKro+j3Uw4m6cRwWRHl87RKrmVXSMo2tlqUWS5q0Zts52NuDT1OZS86wnJ4j35zHkhJPiVjGrpmJEBAI+uns7ED36ZUARQVV1dE0rdJm3SW2sbERy7JYWVlhenoawzDw+Xy88cYbBINBt99iscjExATDw8MsLCwwOTnJmTNneOONN+js7HTVTU6/fr8fgOnpaVpaWohGo26VRcdg79SAd2wjiUQC27ZRVZXe3l7OnTuH3+9neXkZv9/vqs4uXrzIzMwMq6urSCl5/vnnXVtFY2Mjs7Oz7jOqqkp3dzcvvPACUkoWFhYIhUJomsatW7cwzXIwlGmaGIZBJBLBMAyampoIBAKEw2GSyaSbbvzVV1911WtOSeJcLsfS0hIDAwOYpsn4+DgtLS0eM9n3cFJwO79sLMWiKPIU9QKapmPJEiYlmtQIJ0NHwS5we/FrFotTlBrymMLErs4P4lG9CsoBiNXCvCUsSqJEkQKmaiAEWJaNhcFwSz+H/L18lHyP6+kr5GQOg+L62HrYHTNxDN7ZbI779++TSWcIDYRobW3FMErcvz9HQ0MDoVAQTdPQNI3Dh48wPn4HgBdffJF79+4xPDzM/fv3GRwcrPH1DgQCnDlzhpGRERYXF+nr66O3t5dEIkFXVxelUsm9j1KpRDqd5uuvv+att95iYmKCW7du0draSjgcJp1OMzw8jBDlIlWtra0cPnwYv9/P6uoqmqZx6dIl8vk8Z8+edW0RiqKQz+eRUrqEPh6Pc+PGDVpaWuju7q4xkquqiqqqzM7OkslkMAyDdDpNV1cX09PTHDt2DCklsViMkydP8sUXX1AsFjEMgxMnTjA7O8vKygqJRILOzk6gzPxCoRDnz5/n5MmTjIyM4Pf7ef311xkfH2dlZcVt62H/ww0kFmWHFdu00aSgP9yDXbTI23lOdh2lQQ1w5f5lxnJ3yZED6URre9iIsprLHZ+q2BLNFMS0EAPRQ5gFE0UXDLceYiF1n5GFa8StOJr0efXf67DrxFmFQpGZmVnef/93xBpjDAwO8Nxzz6EoKh9++BHTUzOUSuXduGXZjI3d4dNPP0VVVV577TUCgQA9PT386le/4v3332d2dhbDMIAyYXYIa3t7O2fPnmVtbY1vvvmGXC7nEnEpJfl8nkQigaZp5HI5xsbGmJ+f586dO0SjUQYHB1033Hw+T7FYZGFhgbm5OYrFIgcPHnSv71RlVFUVXdcZHx+nUCjQ1NQElA3guVyukqvMqrFN+Hw+2traSCaTXLp0iebmZnw+H6lUijfeeMOtA+8wnVwuB5TVXul0mlwux9DQEH19ffT09LjPJ0Q59X08HmdkZIRAIICUklwuRzqdprGxcU8v3MOzAlH70QmSswHbwizm6So28obyKr9s/Decbj3GrdUr/H7p94z6J0lqSaRpoUnh1TTZErXjogDCslFKJjJX4Lz6Pf51+7/i33f9O/JWhl/f+e+MlcZYCcUpSQtPKKnFriWTQqFAKpUiFApx8uRJVEXFNExOnzrN5OQkd8bvYJoGh48cRtqS8Tt3GB4eplgscunSJRYWFrhx4wbf//73+eSTT1hbW+NnP/sZfr8f27ZpamoiFouRyWTQNI2hoSFaW1sBCIVCrnSUSCSYnp5GURSGh4dJJBKcPHmS9vZ2CoUCAwMDCCGYn5/nyy+/ZH5+3s0Z5hjth4aGKBQK/P73v+fll18mGo1y8eJFV5JYW1tjZGSEaDTKoUOH6O/vJ5FIuP04uX16e3vp6ekhnU7T0NCA3+/n5s2btLW1bfC4clRbhULBtbmsra0xNDTE8PBwjTdZJpNhdHSUYrHIuXPnXFuOoiiums/DfkWdp55rPxGYokRWphmdu82rB1/lYsv3+VX2V3xc+owlbRlTKaFRLifrVQHcCk6eraq8f4CwLHJKgUQxzpV7V+g80oFi61xavMSIPkJWK2ALBdUSO8kw9Z3CjplJeVec587YOIlEgu9///ukUinG74zj8/s5cfw4Z8+e5fM/fM7CwgIdnZ20tDRz4uQJ2tpauX79Opqm4fP56Ovr44UXXqCtrY2xsTFg3a4xMjLCvXv33J23qqpEo1ESiQQtLS1IKclkMszNzdHd3c3AwADLy8vMzc3x6quvoigKH3/8MdlslmPHjpFKpUgmk5w/f55Dhw6RyWT46KOPME2Tn//850xNTfHhhx9i2zavvPIKZ86ccZ0Hbt68iWVZHDx4kLNnz1Iqlfj4449dO0ixWCQej6PruuvJ5jC5+fl5bt68SSgUoru7G9u23VxAsViM1dVVhBDouk5nZycdHR2kUils26ahoYFCocD4+DgzMzOcO3eOvr4+MpkMy8vL+Hw+t669h/0JJ+i9WgpWUNCljmZpaKZKxsoyJxa5VRxjZOE6S5klLN0CC4Qh0GwVBQ2xewXEdxI6GpqpIfXyuE8m73E5fplYYZzp9BQlu4hQJIoUKGa5QJYn9a1jV5KJZVl0dnbQ2dlJKp2qMSSvJcvBhj/4wWtYlkVDQwRd1xkeHgLg4sWLNDY2Mjc3x/nz59F1nVOnTnHq1CnXlbe/vx/TNGltbSUWiwG48Sk3b97k1VdfdWNCjhw5QjKZ5KuvvsK2bQ4ePMixY8cwDIOFhQUuXbpEoVDg1Vdfpaenh0gkgpSSyclJGhoaeP7554nFYrS2tmLbNpOTk6yurrqqLQBd12loaCAYDLpuwisrK64UlUwmGR8fx+fzMTc3h6qq7veqqvLFF1/Q3d1NW1sbiqIQDAYZHh7myJEjLC4uEovF8Pv9XLt2jcnJSYLBoOsUMD09zf379zlx4gRnz57Ftm3m5+eZnZ2lra3NYyb7HQLAdoN6keATOo16lAYZQc/rpHwZ/rn0IZ8vjDCRvU1KzZTTzhuCoB0ipDSgKwGPmewQIYI0KTFUqWJJm8XAEh+tfISvpLOsxDFVC9VUUU2Jr6ASVP1oildx0cGOmYkQgmi0gVAoxPT0dMXd10QRCqVSqexkJyWBQB8HDnTjZmeuGuloNOoyD6Dmt67rHDlyBFVVa9KQOJ5Nfr/fdTt2vKWWl5dRFIXW1lZ6enrQNA1d13nppZfw+Xwkk0l8Ph8+n88NnIxEIpw9e7aS+kUSCAR4+eWXee6552oM64qi0NbWxksvveTaK0zTpKmpqUbSaGtro6mpiaamJhRFQVEUdF13s5EGg0ECgQC2bdPd3U00GiUSiXD06FF6enp4+eWXmZqaAsqeYo2NjRSLRYrFIkeOHGFoaMgNjvT7/Rw6dIiOjg7Xc87D/oarplLAh4/+tkHOFp4jubhGOpfBmjJJmatEtDB+rQsbgRQw2NDHkdYjhP1hT9W1BappjBCCGE2c6P4ew/Fv0NJ+VFNBzSlopkqLT8VSbVSpIm3JQaubBi2GIrwYEwcbUtBvFynr2Ao25rVSqjLgbkwJ4TAEy7JqgvPq7QlOu+r67FsF41XXM3HcdneSfddJ7VJfwGuzHFf1mX+d+3c81UzTLEcfV5hcPTZ7hur02psVDqu+xw2psT18Z2AYBoZhoGs6uq8cq2RiUbCL3F67wdX5Kyxm5ymIghstISUIqaEIleMdh3m16wd0+A6gyG3zt34nUSqVsCwLn8+HqqggoIDBai7JB/d/y3highx5pJAoiqyUGwPd9iFswaDWz9tH/oi2hrYHXOm7g10xk52ivgb8VgkJt0pS+KD07Zthq5xGjyvlSDUTWGes3ur1sDe4zKSSiQHAwsbGJiszJFmlIPKYlO1368tWRUiFqAjRQht+Qm7GEI+ZrKNUMjBNE5/uq2hDoCQsJJIVlkmTooiBxK4Jzyk7Nig000QLLWjoXqqaCjYyk8eEB6Vnh51JGpvBI+IeHDzq6f2o5pppmpRKpRpmAqwTLkeFLOq+rz4Gbt6p9Rt+JLf7zGEzZrLXsZFOhnrhlAv4buKJKd63Swu/GyayVTr4za6zVQ2R3dQW2e5aO7n3x4HdENCn4X4fJZ7153NrbtQzh62YSPVnscn8/A5zk9oN7DZVEXe6fJx4R+HUPKkwFp79ebcXbMtMtrMDfBvt99q2ut23Ib3stL+tUr5vxtweBvWMbbfn7QaPK0Gkl4hyd6hW+Uokwi2f7TSoarzpsMqqGvAb+90LHuf7+7bvs37+OUHBlaMPFinc+xHOGZV+tr7mdw1bMhPHe8mxA8CDie4G80tVqpTNju+VEezkXOf8zQzp9Qygur+dPNdujj2JSfY0SSa7Hc9Hed1Hfb1q54qHhVMD3nE0qXHWcAMYN2MX602coxLpUr+yOufpj7bbyzhuR5/qtQpOVnHbtlFttZYuyLK+qty07p269eElPICRPCz9etawrWTiuL86cLy5YOOL24xA7wQ7OafeVbj6mju97mYeZpsZ+rcifvXtd/sMu8FejPdPyPT1QNQ7I1SP5eO6/uO6juOEsVtmXj03HS9DwzBcRxZ33lXbSyqp0x1d/+YMpeKDVCPFPJ3zpBoPI+k/SHPiMOVqRu2UI3dHUVbmLWBLG6Ss4t9OO5v6oNLtnmOn9/gsY0tm4ri8VqOasdS3rR+g6kWw1Xmwcfe+0918PYGqtn1sRawc1+XyOc7kEjV/b3WtvTCT/Tpp9oK9qu4eBk9CMtwNo9zs3px1o6qqWxbbzcZdxUyELHMQWRFY6pQv6389I1Nwr9L/ZtjJO1cUBdu20XW97IIvAeFkaa4wd9ffusrCIhxz1N7m8X6mCdtKJvVxDg+Ke9jM8F2rm1w/thMjObAhLmQrF+N6NdbWcNx3nTkjq5jMxuerl2j282TYj3gWbTUOM3F+u5s6WfXjoPrRhNz45TPy6I/akaV+HVfHcqmqChY4OkO7wiqEVVYUoolyXWTKzNvGRqkU1vKwjofy5nrQBKgnwJtJEA+aNNVlfauvu1Xf9Z+r77NGlK1akVJur/d0+tuKoXl4evGsvqtNJWDKhbAsbErCwBL2uhdRHZfRpY8APtRnJJXK47DdbSvhVPNfaYNdSd+vlNWFrjpRWmCZIDRQ1WeGWT8OPDQzqZYM6qWNav3xZlLNg9xwpSynXNc0jUAgsKl0IGW5tokQoiZFffV9ON9VMxMpwTStSgoUUSOlVPfhRO5XZ+n1GIqHejyqOSHciovlHbGFyWIxwWx6nnQpi42FQGJhIUXZ0C6RdDf0MBwZoEEN1mu/vrPY9v0ouOOUW1jEzucJdXegBgOARDq0xzLIrixgFRQaOjvQAv7v/Lg62HUK+urfy8vLpFIpGhoayOVy9PX11UgSTnXEZDLplrk1TZN4PO6Wt62OGq/u3zAMCoUCX331FbFYjGPHjhEMBjcsWsMwmJmZoVAocOTIEdbW1vD5fG6iyOp7r74vwzCYmpqioaGB7u7uDc/o3E82m2ViYoKenh43KaSX5sTDZvg2GEqNS3C1/UWCKUwSpThfLHzByPIt8nYRWy1HaJd3QxLVUlFMQWfLAXwHFA43DKILfZ0peYSvAlH1U9FOGBZrCwvM/d//iFxcpv9nbxM+fQw7EkYICyEljM8w+atfkUjmOfPvfkljfy/eoJaxK2biSBtLS0v4/X7Gx8e5du0aAwMDpFIpenp6ME3TjdiVUjI3N8fVq1cZHh7GsixyuRyTk5Ooqorf70dRFMLhMFKW65TMzMzQ2dnJ/Pw8S0tLvPvuu25t9JMnT9bUmIeyV4aTeHJgYICpqSny+TwXLlxw76NQKDA3V64C2draSqFQIJ/Pc/XqVTdxo3O/Ttbf5eVlNE0jHo/z8ccf093dzfHjxwkEAvT393v1RDzU4NuSSjb2I107SV7kGE2M8UniE2bCc/haApg+GyHL6eY1W6HRjhGRYUYS12hajnDA10EsEHMN9h4ciLJnVmVsJUC2wO0PPmX1b/5PAlPzGAuLDP/P/xbt4jn0gMba/Dy5v/3PLPxff8+9ksnw2z+icaAHb2DL2LVkYhgGt27dorm5mUKhwNLSEkjo7OykUChnu43FYvh8OoZhMDk5VanpPkUikaCxsRFd9zE5OUUwGETTVIaHh7Ftm7W1NcbHx2loaGBhYYHbt28Tj8cpFouMjY3R2dlJa2srmqZhWRbJZJK1tTX3J5vNuiV0jx8/TktLi1tt0emnoSHKwsIi2WyWQr5AQq669dehzJwmJib4/e9/T19fHwsLC2SzWe7du8fi4iIHDhygra3NZSaeysvDo4BwY0SEK1AYGCymF1jML7CsLWGkTEqqgSIUIsUI3cEumhpjyLzNcn6RRWuBvJEjGog+4ad5GiGrBZOym7WmEGhvpvGls+QVixu//wDFytOdy2CaFncu/4Hkf/0HwqbBgfPn8MdieIxkHXuSTFZWVhCiXFs9HA7T2dWJUbKYmLjLwMBAlS+3xb17k6RSGSbvTTE5OUnvwV5s2yYUDLGwsMjgYD9Qrn44MTFBMBgknU5XaqI00NzcjN/vx7Isrl69yoULF2hqasIwDLcIlWEYbk34QqHgulVKKd2qipqmldVbJZN8vkA8nsCyJcVCiVQqQzTagM+nY1mWy5iampoYGxuju6ub9o4O1tbWaGtrR9MquZK2Mdx7eDC2s5l5EIBSoXLlb0oYpGWaRbnApH0XpSgpKSVMYXEoP8Rg40WaG2JcWbrMuHGdU9HDFJQCljRRN/FU/G5DUl1pUQBEApx56w04cZLp37xH6G//D+79w3/HGL1Lfm6JteVF8r2dvPCLX9D2v/4viMNDeMxkHbty9XCCfhoaGlybRCAQ4JVXXiEajXLr1i1CobK0Ydvg0/288PwLxGIxug90c+LkCVaWV8o13wXMzc0RDAZd+0QymeTmzZskEglmZ2dJpVJ0dHTg8/lYXl6uCaJ0aoWUSiU6Ojrc7/L5PIqiEAqFgHI1xOvXr/Ob3/yGzz//nJnZGbLZLIZhkEqlWFpeYnR0lIWFBfcZpSzXTGlubqahoQHTstA1H8ePn2BoaMjt23FD97A3PInYk2cOsjrOsGJPsW38us5AuI9u2gkWdA5FBzgUGWQqOcG1whXW1GVMUQTsmgh4D5vA4QfOpqa3k7Y//1f0/Ztf4jt0Aq5fR1+c4lAoQu+/+TN8//u/xzp+CKl7DLoa2sImxgAAIABJREFUu/YbVFXVtRkUi0Xa29vJ5wv0DwxQLBZZWYkDZQJRKOSZnpkmkUhgGAYNkXLVwoH+AWLRmFuvXQjh1l+PxWKcOnWK5uZm4vE4PT09HDhwAE3T+OlPf0pzczMAmqbR0dGBrutMTk4yOzvLp59+SiqV4sKFCzQ0NCCEcAtRhcNhOjs7mZmZ4euvr7C8tMzKygr5fJ5UKo1hlFN527ZdUYc10NPTQ3d3N8VigVQ6RVdXFz09B9C0Sv0U8BbpQ2Iv0f7fSbgBixJLmqDYHGob4LDvMAPmIIebh8iLFKPLN1kxVjCEAXYloUq1R7yHKtQOjKQS4C4tguEAXaeO09ndhdQUTCRN0RZeOHmWxqbW9QBHDy725BpcLBa5du2aq/JKp9+lpaWVfD7P7Ows3d2dgM3iUnnX39rayuDgIJlMhs50Jzdu3CAQDHDs6FH6B/pcu4PjJZVMJkmn0ywuLnLmzBn8fj+ZTAao3c2apkk0GuXu3bu0tLS4xxwvMUVR3BrysViMgYFB2tvbiYTD9A8MoPt0wqEwP/nJm650VCqVSKVStLS0sLS0RDKZpKmxCaNkMHlvkgMHulxpxF2oHjw8Esiaj0KCtC2kLJHNJygt5zhWPMb5hgvE9BAj/z97bxYc15Wn+f3uvbnvyAQSO0AABAFwp0RSlFRSdZVUqkWtKvcS09OLa2bCEXbYjgl3vzjCT24/eB7sB0+Ew1tMjMfj7nBPT1d1dXdVqbqkKhW1ixQp7iQAgiR2ZCIzAWQmcrvb8cPNTCQSCRCgSEoU81NQADLveu655zvnv3z/pUvcyUyy4kyimCCZ5kZhrNrDPaV9drN/U25oVrCy3A3WluOsv/sO8Ynr+FUDDZhbXWT5V+8w1N6J98wRJJ/rMV79lx97plfTNInH4ywtLdHR0cH8/Dyx2BKdnZ0ArK2tVbd1Op08c+IZIuEIXq+b1tYw3d3dhFpCPPvsM/T1922KirIc9tPMzc1Vs38r56wNxy0Wi4yPj/Phhx+ysLDAyMgI7e3tvPTSS+Tzed5++20+++wz4vF4dR+Hw0E8HquasXw+DzbFhmJTkGUrKck0TbLZLGtra4yOjlaF4IKhIIFgwPIFCRBlU6toWg+aeGSoS3evJM1JEiYmBbXIzYWb2D02Dg0fJC7FuZy+zGppFcM0MA2BKSg78J+8jPhHgfuugE2BZIJ0Z5G7f/ETPv2Pf0t8YZ7w6a/hOXiEO5T45M2fsPDv/h/US9cRxdLjufAnBLtemQghWF9fJxaLkc1m8fl8+Hw+IpEIwWAQl9OJ3WZjfT3L1NQU3d3dRKOtlhC2BJlMhkQigaqqeDxu8vkc2WwGj8dDW1sbbrcbWZbp7u7G4/HgcrkIBoP09PSwurparZNeWT0sLy9jmiajo6OMj48jyzJdXV187Wtf49y5c8zOzuL3+6sRXd3d3bS0tLC2miafL3Dr1jjp9Brr61k++uhjfD4vXV1drKyssG/fPsLhMPl8vlpv3ev1oygKN2/ewuvz0dHRjsPuaMbuN/FoULWhCipRvXYcBJUQXs2H3bSzzDIThQlIynyw9j4TpQlKko6j5MarevCJEDbZuSH7IdHsrxU00u4rasxO3SP9f/8H5n78M3J2md7XvkfHn/3X+BIxEu9/iP+DD5n66S+Il3SO/6v/jsDwvmZ7lrEnMikUCsTjcRwOBz09PWSzWQ4dOoTdbieZStDZ1YEsyywsLNDW1laOqlLZN9BPoVBgYWEBTdNQFKUahdXS0kIgEMDlcuHz+fjhD3+Iqqqk02nOnDnD4cOHWVxcZHZ2tnotfr+fr3/96wghWFtb48qVKwwNDaEoCn19ffT19VVXILIsVz/TdZ2lpTjhSJi5uTk8Hi+5XI6LFz+jo6OdUChEIBDg4MGDTE9Ps7KyQjQapbW1FU0z+PTTTzFNQVdnJ6FQCKfT8UgeShNNVJMXK39L4JZcDAUGORgYI7ESY12s8/7ie3y4+BFFCkiSDQ9OJElmv3uQkeAwAYcfGbnePdAEDQI/NJP45B2mzp/DLkv0/OEfcOKf/j7BA320OGy0vfFdlv7yH/jk3/9/TF2+xuDqKgH2fTEX/yXEnsr2VlYFQghsNtsmvarabSrfV3JHXC4Xbre7Gq67qQwpW8XXANbX19F1nVAoxMrKCouLixw+fHiTdEslhySRSNDS0oLX691yvdtpd2maTqmkYug6mqbhdDnxej1IkoRhGKysrCCEKJOGE1XVSKVWSKfTuJxOurq7mmTSxCNDJdzdKttr9TOVIjmR5Vz2Yz5a/JBYJk7JVAEJUzYwJQOQkSSFo52H+EHHf8KQbRhF2DYIpQkA1JKGrhs4nQ4URa4k8qCvpVn+u19gW8vS8t1XsA/2g0veUIZdXGP6l2+zvrrGwB+8gbens9muZeyZTKo71in77iS8WPt37c9aReDdCD9WzrNbyfrGKsOV668IPHJfx2RtzYNm9FETjwMbZGIrJ9Ru9LmcmSNdXCOn5qyoLSznvLWFAsgE3T4ijggOybm9yvBTDLWkoekGTodFJtVXWgi0fB4ZgexyIdlsluijtKGRphYKCNPA7vYg25rhwRVsIZPt6oDUf18/+Nd/Xi8N3+jYlSTI7Qbo3WaX7yX5TZhWn9hUuK4mjv9+6sGV8zQJpYlHidqVicNhp6ohBRjomJiYwpJ+rMBys8iAhCxhaXKJOqn0ZrcFoFRS0TUdp9OJoigbk0pR8VHViDvWOprExufQTLitxY7Fse73eaPf601e221f2a621slOtUPuRyy7fahSg9X+xq47H7/ZcZp4nNjobxtEIgBF2KwXt+pQqftZ2UW2FITFDpOkpxcCgVnzVyV1xDJZWLLzm9vf+lWqzj6bbboZW8jk8zbQ/YpINVqx1O/fiDi2mqu21jjZ7bU10cSXHTtPpMoz5frorLruLdh+Yvc0or4OkizXBiaIGhN4A0tMTW3kp70dt8MWMrHMOVDpqYahb7vzdj6UvWA7EmhUzOZ+57sfoex1ZfOoq781QlNa5MnF/SY8u9mnAl3XMQxji/m4Zs/qeqXRWaougAbnelr7WO1EVtO0cikKFdPc8HtsOw48xITPr2r7b0MmAoSMwIreqnzeaNsKGpmrKthulVFxbDfavuJPaYTa2cWDPJhG/p7dEMWDnm8v1/VF4HF07qdhIHuYz88wDHRdb1hptGy/KtvyLRv/bq+l3gz9VcNOz6CWTGrJ2jCM6ve1x6mv39ToHHttw6/yqmZ7M5dkzXwaVS9shL2sFGrDezcVAKrb5n77b4edrrXRfhXplQfF/YIWdouvckd72vB5B2pdtywCiqJsCaW3ViWV93TDDNN4jdIYX6a+9rBIbS/3VJFcstvtVcLeLdFKZW/9g1z2/dwATzIaOuArjQU06MgWGofdioYkUB/d9WVoyKYNuYkvK2pnxHab3XoHpQ0HfI2Zv2EmN2A5ipvde1vUqo9vWzl1x5BqK6en2cgbeCAHfP3yb6dl3xcRTrtXW/X9iKVJPE18EZAqhNAgslfUEUntqqRqXGgOdJvQKPdtmy1r/l/ZdvN3Ta7eigdSDa63f+8lz6NRtFYjW+VOeSyNUB+psd33tQmW9fez3XH3cn9NNPEw0Kiv1TrVhVTzHlY/3/ASb3wjPVTn8ZOM3b6/1lhBbc7Axndl2UxRa2psAniAsr21v6fTaUqlEk6nk0KhUFUOBqoDdzabZX19nWg0iqIo1c9CodCmbRvNEkzTJJWy6qO0tbVVP6tsX7F15nK5qoqx3+/f7AMRFWvABtlU1IBTqRQul4tQKLQlZLlyPfl8noWFBdrb2wkEAk1CaeKxoTaKSAAmBgW1wFx6gTU1g+JQkKoWGrFRBEtYuSjdnk7a3K0oUjNLewsqjFwDjRLLq3GW1petkdGhlLlYgnJOijAFwhCIomAsOkLQ3SyJXMHuyKQm/towDLKZLEgSt29PMT09TXt7O7lcjo6Ojk0rCsMwmZ2dY3x8nDfeeANZVtB1g8XFJRwOJy6XC8MwqsWm6gmlUCjwySfniEajtLW1bfK91EaCZTIZzp8/z/DwMKOjo9XM4UAgAEKiWCySSC4TCATw+/0UCkVKpRKXL18hGAzy/JkzmKbAZrOccvl8gbXVVQSwspLi7Nl32b9/PwP79uH2uOnu7q4GJjTRxMOGJEkVaqgShATkKTCxNs7PZn7JXTGLs8WOZLfWIYqpIBsSbuHGKZzk8jleDr3IK13fwO/wW7Po2pyUJjZBmLAsxXln+ld8nL+IGQTcCkKWQAanZkcxFdyyC0M1SSez/Evvf4Hf5UVukjWwSzKpXSXrusH1Gzfx+/ysZ3NMTt5mfn4Bl9PFtWvXkSTo7u4mEokAgmKhRDy2jBCwsLBIMpEklUqxurqG1+MlX8hz/PgxXC4nmUwWVVVxuz3kc+ssLi5x5cpVTp48ye3bUzgdTvr6+pAka4USi8VYWlpClmVUVeXq1ausrq5SKBQIh8OcOXMGu91OSS0yOTmJzWbj5MlTxONW0au5uXkWFhYZHRmlpaUFyvc3PT3DuU/O0d7RjqZqICziTKVW6OjoIBJprYlya7gabqKJz4kaf0k5HiZPntuZu4yLcZbCMfCYaDYdWbLhLbnxCx8HvAcIK2HuLtzjTv4ep9VTeBxebEJpEkktJKxIuEpUg4C4tMx4/jZ3Q9OUWjR0WbcegyxoyUSIBqO0BSNkc1mSIkFWpDFMHVlpOuJhl2RSO1iapsni4iKRSAS7zY4iKywvL9PX28fNm7eQkPB6fETCETRNY+rOFMlkktu3p7h54wa5fI5wOMJ6bp2VlRXWs+scGD6Aruu8/94HFIoFBgYGGB8fR0IiFAyh6zo3btxkbXWVf/4v/jkAqqoyPj7OJ598wsmTJ2lra0PTNLLZbDVSo2ISc7vddHV1MTMzy9pqmtu3bxOLxYjFYtgUG6nUCi1hi0wMwyCxvMz09DSDQ4PEsjGG9g9VTXmRSARZbs5EmngcsJiksqAwMCgaBXJahtR6HLWkUrJpIElEMmEigTBtbW2YqsGanqIgraOjlmVDmn12J0gSaBjkjQLJ9QRZ1jFkAyEJDNNESSscDIwRdHiZXZ4isb5ILrSOIQxsNKkEHsgBX1bQRULVVOwOO8eOHcPn89Hb00t7RzstoRCGYcnDT9+bJpvNsrS4SC6Xo6e3B6/Xi9PhRJIkxsbG8Pl9pNfW+OzSRUKhFmRZ5vr167z++uscPXa0nKmqcfPGzY1IlbLJLRgM8sILL7C6uorH48Hr9VIqlYjH4wgh0DSNWCyGaZr09HTjdDkJh8PVWu9Oh5PW1taquc0ynwmcLieyLLO0tISqqoRCITKZDMFgENOsEddr9qImHgEkISEJ2bLXV/wmkokp6eTJkCGFLgkKcglDMmg3WxlxDuOUbVxcusJc7h7PRA6jS2pZDNLedMQ3Qk20nCrpFOQSaZEma2asdpNBQxB1tzHqGuZ27jrjyask9BQlChgYNO2HFvacqVeZ6fv8PsAqzfvyyy8hyzLz8/O0tkZwupyYQuB0Ojl56iTt7e10dnYyMjLCenaddDqNpmmspFbo6e7G5XKUfRxB+vv7cTgcBINBIpFItTDW7OwsTtdGid+K/8Tn82G324nFYty9exebzcb09DRvv/02hUKBUqnEzZs3eeutt7h69Sr5XA6Px0swGMTpcLC+vs7UnSkWFxerxzUMo0pWpWKJeCxOsVAsm7jC1dwbIcA0GyddNtHEw0D9ECUhwBQ4FDu9ri56tE5CmQD9oX66Ip3M5me5mbvBuplGVOpLN4tLb0W9A17aUBSwGxJhV4BBZz+dhXZ69XYOdh9AlgVX4pdY0OZQURFSs3VrscdoLitzNNwSJrGcoFgqks/luXv3Ln6/n4sXLzI6M8r+/YMApFIr5PN5BIJAIEBLSwvz8/OEIy34/D6CwWA107cSJbVhSpJJJBJ88skneL1edF3H5XJVr8UwDNbW1pAkiRs3biDLMvF4nJmZGSYmJuju7q4Wy+rs7OT69euUSirLywmmp6fx+b0kkylKaolEIkEoZEVl6LpOoVCgv7+fjo52vD5vedVio729nUOHDlkm7HIvauagNPHosOF8B5CEQJgGpqEhhEa/1EWb3oFApivSyaI5w8fJd7ltuwUOA2EabJp61+WsPN2odUhZkJGQDFBME6fk4EXfaZzChdfhxuG281HyPW4Ur5H0JGjJRhsTyVO8SNnbyqTccqVSiatXr+J0OEkkEvzyl29Vy/HeuXMHAEkSrK2mSaVSBINBevt66eho59ixo6ytpdE1ja+99CKDQwMA2B129u/fT3d3F+3RdjRNw+f1EW2LMrBvgEOHDlEsFq3LEKIastvW1sadO3fo7OzkyJEj3Lp1i2AwyBtvvIHT6cRms9Hd3U1HRwf79vUzODRAW7SNM2fOsG9gH88++yzf+953GB4eRghBNpslHo9z6OAh0ukM+XyellBLufriKsK0zGAAkrxR2KuJJh46RPV/G6RimmhmkbV8ktmlOYYdI/zh8B/idTp5997bTCRuUDCz6IZu1XQSElLtFLo5jd4WCjKyDqpZYmF5jnRilcNdB3m+4yWurF3jrfjbJLRVNMlENoSlZLN16fjUYk8rE6lMPbIi09rWysjoCBcuXiAcDjM6Osrs7CylUolcLo/T6aS3r5fUSopr164hBOiGTk9vD6WSVRfeNE1WUit4fT5cLjevvvoKTqeT2Zk5NFWjra2NV199BZ/fR6lY4rPPPgOsiKtUKoUQguHhYRRFweFwkEwmyeVynDp1ilQqhd1uR5Ik7ty5g6qqrK/nuH3b+l3XdTxuDz6fD1HWkywUiywsLIIEwweGMQydYrHI3Nwcsizz7LMnkORK6POGmUtRnuIe1MQjgqBaPrEmo12RbEhCwTQkkqUkOVeWjHuNawvXmM3OosoqmALJBEnIGy9tEztbEQTYJAWbIWPYDEpyiavLV4iEw0wzy63lW6zpaQzFQBhg6gaykJCfZvaow67JRAjB+nqOO3fuMDc3RywWY2JigmKxSDqd5sqVKywuLlIoFLh86QrHjh1FliVmpmcQpjXjn5ycQNM04vE4yVQSQ7d8E0eOHiEabcPlciGElTvidDrx+b307+tFCMHiYgyX0zJzlYpFpqen6e/vJ51Ok8/n0TSNhYUFikUrDDiXyxGJRBgcHGR9fZ3+/n4Mw2BmZhpZlvnss0skEgnWc+v85uy7+LyWHyUej3PkyBEURWZ1JYMkSSSTSWw2G3fu3CEYDOL1eAmGgjgcjqYDvolHg6r4VtlyIoGMDYfsRsEJpo2MPcO50kfMx2a5tHKRpJTEUAwwBYqw4VScKLLSjBIpoyGR1KzWnNjxmE50WadoLzHvmOOXiX/ErbmZFXOs2/PIkgk6SJqJXVJQqKtk+RRjT2SSy+WZmZlFkqC/vw9d1zhx4jg2mw2bojA2NorNZqNYKpT3MdENjaGhQQxDo1CwBv1AwG+d3G6dXpI2y6j4/F4OHhrDZrNVz22z2RgbG8U0TQqFIk6nk7GxMVZWVtA0DSFENWmyYnryer10dnYSjUZxuVyk02mW4wnmF+aZn1tgZWUFNaZy985dOjo6eO7Mc3R3dzM0NEQsFmd+bh4QvPLKK5imyaXPLuNyuQiHwzz77LO0toU3OuhTbCtt4vHAhYs+fz/DrgPE08toosBcfp4UK+TNIl7ZD7IEkqDX3cs+3wAeu7c5e94lfAToDw7Sk+1DpCTsqkIhraJpJi63C8Vmw4aMEBDNtuOXgyhyYyHcpxFbasBvByGs2ib5fB5Jksp1kyUcDkc1uqmS31EZ/CthuX6/n1AotOl7sBQ7Kw74ivxJJQExnU5XHfGV0OBMJkNLSwu5XA5d1wmHw9XjVeRVtqspv6GvJWPolvM+X8hTKpUQpsDj9dDR0YGuGwhhkkgkEcIkHA7j9/soFkvMzs6yvLyMotg4dOhglRTByqBtWhSa2Cu2M71omoamadhstmqCrI5Oppjh/fj7vDf/PnPFe2TktcqyBSGZ2AwFRcicbH+W3+37A/Z7R3FgR664R5u8AoBa0tB1A6fTgaJYFRfTpJlbnuFnS//ArcQt0iKNIZuAiSkZSDK4dBeSUBiWR/nPn/kv6Wvp33tI7FcUuyYTsCKoKnLNjWqA1AsiVrbfrSpv5Zj1x67XBNup9sh2BW4q11yO2bBWQ3WHMc3KKqn2eBu/72gtaK5Mdo3HFUr9ZQ+M2Om9aEQmBgYmJsskmC3OkSgtkRc5q5aJZAmwKEJGRqbP3ceIcwwfAWRRY4r5cjfJY4NaUmvIxFIHKFHCQOMe91jIzJPV1zElYVWKkUwkSWAzHSgodLus9vXInmaTlrEnMtkNHiRUtpFKcKNt6rHbSomblH+RqzboetIwTagtbWCalrCbLEsPZnZu9rKnErt9pXbqs7qmo2kqNrt9c00hQTm/odyfa0KHrZj1Bsds9sMtqAThOJ3ObeuZCIQVCWeF0ZU/LEdESJs23MBT3NYPJEG/Ex5VhcHaMr71ZqzdEEnlBZfl7VcY9QseCco26L1HVO65FZod8onGg9btqd1PCLHJmdswLaQi2VVLGpsKb7CxSn4C80oeZ7mHHc8hqHOsS3U/t2xOVaL885z3CcaeJegbVVP8vIWv9jKT2/V5KqUcBICELElI8vb7NjqsJD++d7GpdPFo8ahNaw/a/zftJ0mWcGj5T1HOyW68I407TR2BPMyk2sdhnnyQa60noN0Q0nblwu9/gY0/k8q/PM1qGJvJpM7uX2nwyooANsQTaz/7POV46x/q7muxb2cOg003UvPCSWbDXXaBhy+Zsl0BrycJD2LOfNx4kmaBQpKqXGCYBoZpgL71nahdfDQu21vLNFv9iF9V7OU+NU3b5NPdfBwACUmq/bwyeFQUgp+sd/VxYNuVSYVEDMPE0I2y8ujGA6uPzGpYGW6HaooV1JJS7XcVcmpcGtiKytp6zWAN/CYPf47/wEy0I+o78oMM0I9qkL7fBGGv5/0qD2TwEO5P2jCsGIZRVZUw6t6RTWOZKTCF2GIckySxebgTWA6WpwT3exaqqmIYlmBrvc9ECAkJuUwmAqtGWQ2ZCCv8WnrA9nzSJo27xX3NXLIsg03CNK0Q3g3fw+4D4rZbfdQvwesJZPtzbD/IWfvKj+CBPfwAwPp2qV3hbUcyW2dRXwyZ7PW8n9cU+rShEtGoKIpVUbTWGiZqzLJSuWeWE+YtVpHqNqrFV3Mgq8Vu+lmlfW0221YHfNnJXi1RJmrex+qxK6V99359Tx2Z1Cb/AQihPNbB4PPaej/vjP+LxP2W69t1xifpHpvYGZpejuaybURz1T/1TWNZoy+b2BYVU73DUQ4Nrraf2IiI24ksmqkAW3DflUl9bfQvM74KtuH7zVpqgyBqt39S77eJ7VGryyix8Uetz0RsMd+Lqky9lUglNQe9Bqj3BUPZlCUss6FAYCBqVoQVOX/LFKlgR0FpNm0NdiSTep/HTuG5X6QUe/0AW/kMnoxBdqccmp3wpJB8Ew8BNWYsSdMxiiVMhw3J5awSigAUITANDckUSDY7yMq2s+gvu7nlsfbtMlsLySSjZsgW1skLq2aJ5Z/VAGGlPAvwKCHa3K04lIeeXfHEYseWqM88r/xdHx78eQa1h0FC2yU8bufcvx8qVRiFEHg8nj1fT227FQoF4vE4wWCwWme+0XVUJGQqUSZCCNxuN9FodMs91La9aZqb/tnt9m2TsGrvr6JnZrPZNmmg1UfuWUEYBrIsb6on08SjRp1vrFLbRNUwbk6yeuUGjr5uvKeOYQb8yBLIAshrlG7fQc4XcO7fB20tbKfz05yIbLyrAshTJJFPcDF1ieX1ZVSbCQrIKCjlIAebISFME7cZ4Nv9rxL1Rnc8/tOEHaO5alE7YOfzebLZLD6fD6/X+2Cdsma2VCwWMU0Tj8ezrVltuyz5imaYpmn4fL5Nn9dvq+uWpHylzkk9KtuqqsqdO3coFAqcOnVqxzZphNrP0+k0H330EQcPHtykJVa7nRCC5eVlPv30U7xeL6qqsrq6SmtrK9/5zneq7WEYBtlsltXV1Wq0T6FQIJfLVYlkeHiYtrY28vk88Xgc07TKJ+u6jqqq1cxfVVVRFIW+vj76+/uRJEsdeXJyEkVRqqRms9kolUoEAoFNbdHEI0Z5JbLh7gXJFKzHk8R+9PfM/+jvsR0cZfi//Ze0vGA9F2GalG5OMf2XP0JbTtDzz36f4DefR3E4eFpsXXtZbdVOjoUEK6zy8dw5fpN7j7yniM3lwJRMJFPBrivYkHFIEkIYmGsyJ9tP0OZpbRhZ+jRiRwd8PUzT5M6dO1y4cIHl5WXa2to4evQohw8f3rNZqcIlqqpy9epVDMPgzJkz1nf3kVWpJ4h79+4xMTHBq6++Wq2uWCwWmZ2d5cCBA4AVVz49Pc3du3d58cUXq9vJ8tbIr1KpxOTkJCsrK5w6daoa+bEXqRdN01BVlbW1NeLxONFolHQ6TalUQpZlIpHIpu0zmQw3b95kdHQUVVWZm5ujUChs2sY0TVZXV5mcnMQwDAqFAqlUCpfLhcdj1WapCGeur68zMTFRXWkYhoGqqhSLRVRVxWazEQgEaGtrq95XLBbj3Llz9PT0MDc3h6qqHD9+nGQySSwWa5LJY0R9X5MkCUmGglZiKZFidimGnogRfuFZ2kYOINnt5GbmSP7Nj5n7+7/DDEcIZLP4TfFUWfb3MrHdnB8nSJPmdnKSZX8Mw2di2iUMYSCZNsKlACFniLZAK/lSjqXSMut6Ft3UsMs1ZP30NPUW7EmCfm1tjR/96EeUSiWi0Sj5fJ6lpSUOHTqEEIL19fVqhITb7QasgVmSpOoAJssyTqcTEBSLJUzTJJ/PV89jmibZbBZJkvB4PNjtdkzTrB7f4/FsCRkuFAqcP38en8/HK6+8gqZpTExM8M4779BhTgMmAAAgAElEQVTb24vL5WJ5eZlf/vKX+P1+JEkinU5js9mqK6vaGbymaei6Ti6XQwiBruuYponT6UTTNHK5HHa73SqsJQSapmGaJqqqlu8NVlZWcDgc6Lpevd5SySoRnEwm+frXv169/ooJye12UygUKBQKmKZJIBDYdK+KohAOh+np6WFxcZFUKoWiKIyNWXL9nZ2dVZLyer1Eo1FmZmZwOp0EAgHy+Tx9fX20trbicDgIhUJVEUGguhLp7OwkkUgghKCvrw+AbDa7267SxEOCVJPECIAMwY4oo7/7fbyBFtIff4D869+wls4hOzys3b7F7Y8/wW6T2f/Ga7Q+cxTFYa9b3nwht/LlRTmaQZIEadaISzHuidtkS+vIBQUJCV0ITpaeoTcwguopMZO7x13zHmvmKobQsQnH5qi6BwwZftKxJ++RqqrMzs4yPDzMN7/5TaLRqJVUZRjcuXOHq1evYpomXq+XkydPEgwGefvtt1EUBdM0aW1tRdd1nnvuORYWFrh37x7PP/88bW1tCCEoFotcunSJmZkZJEmiq6uLkydPIoRgfHycqakpurq6OHz4cNX/YLfbGRoaYmxsjHfeeYczZ86gqirnz5+vmm1GRka4fv06U1NT/Nmf/RnpdJqzZ8/icrkYHh5mZGQEVVW5fPky2WyWrq6uqsR+JpNhcnISSZLo7u7m2rVrJJNJvF4vBw8eJBKJcPnyZfL5PIZhcOLECSKRCLlcjtbWVgqFAn6/n0gkQltbG7lcjlgsVm3TSs15IQTd3d1VYotEIjidTm7fvo3f79/kOykWi6RSKVRVreYiTE1NMTs7y+DgIENDQ3jLxb4WFxfp6uqqHgtgZGQEAI/H09CcqOs6hmFUib4yIWji8cIik9oEEwm710Prq18n+MJpVv7xOKn/+X9i4V/9j8go6BiYI6O0/JN/Stsf/z6uof6nclB7MAhMDHRdo5QrYvPKBGQfhUwBFJWRyH6G/fv58dpfcSl10ZKwRy0LbtaFEz+l2DWZSJJEOBzmjTfe4OzZs/zt3/4tvb29PP/886TTaX7605/icDgIBAKMj4+TTCZ57bXX+Ou//mtOnTpFNBpFVVUuXLhAV1cXH374IalUimeeeYZLly4hhFXc6s0336Srq6tcc32F/v5+VldX+fnPf05HRwfj4+Osra3x3e9+t+r38Hg8HDp0iIsXL3Lr1i1CoRALCwucOnWKzz77jK6uLm7evMnAwACBQID33nuP9fV1lpaWGB8fxzRNotEoH330EZ2dnYTDYQzDqnny8ccfMzk5ydDQEBMTE8zPz9Pe3s7S0hJTU1OcOHGCN998k1AoRH9/P7quVx3gN27cqJqIKgP5wsICuVwOoLraunXrFqlUCkmSqo7x3t5eDMNgfHycnp4ewuEwuZxV6TKZTHLgwAH8fj/z8/OMjY3hcDi4fPkyly5dwuv1Mjg4iBACh8NBV1cXoVCIWCyG2+2umvZqfTaVlWBfXx+9vb0sLCywurqKy+XCbrejadpD7XhNPBgkyfK0O7xuOp47iTk8TOLiBXR0bNg5evxZIt9+DXt3F1XB2+rOX9RVPwkorwKFjGLIdISjHPccZ7G0iOEw6Yl0c3t1ktsrt8lK69iE7WnI/9wTNpPJfTqb0+nkW9/6Ft3d3Xz22Wdcv36de/fu8cwzz3Dt2jX+6I/+qGpOef/99zl58iQ2m43XX3+drq4ulpaWOH/+PBcuXODOnTt885vfRJZlSqVSVSNnaGiI3/u930NV1aqp5cMPPyQej/PKK6+wtLTERx99xCuvvFIlE5vNRldXF62trXzwwQcMDQ0BMDo6yl/8xV8wOTlJIpHgjTfeIJFIcOPGDf70T/+UxcVFfvKTn/Duu+/ygx/8AK/Xyw9+8AN0XWdqaopr166haRrf+MY3iEaj/PSnP+X06dMcPXqUmzdvcvbsWYSw6qu8+OKLnDx5shrxJEkS4+PjrK6uEo/HcbvdVWd2T0/PlrYtFAokEgmcTifxeJzBwUFkWcbn89HZ2QlYKxJZluno6MDpdJJKpVhbW2NychIhBM8//zzZbLaa5FZxpI+Pj9PS0oKu64RCoaqMBGz29+i6Xl3Nzc3NkclkuHbtWrXAWRNfEigSpilQV1JomQwyEgZW8az4WhIlHqO1uA98ziZ/3A9Vk5SEjIJkytg0GW21xLB7P6ORERx2F3kjz2cLF1lSYqTtGVoKwa3qNE+5GXHXKxPTNFlbWyOTyXDkyBFGRka4cOEC//pf/2v6+/txu93k83nS6TSBQICRkREkSSISaaU10orXY5XQPX78BFevXsNut3P06LFNx5ckidOnTxMIBABobW0lkUiwtLSE1+slFovR09ODrutbzC5er5fR0VF+9rOfEY/HOXjwIMFgEF3X+fnPf47X6+XAgQPcvn2bYrGI1+ulq6uLsbExPv74YzRNw+12EwwGyWazKIpSrS/f3d1dXUUYhsG9e/cwDIPDhw/j8/nIZDJEo1H8fn81vLatrY2TJ0+SSCQoFAo888wzHDx4EEVRNhFOMBjk2LFjaJrG4uIiQ0NDzM3Nsbq6itfrpbu7m2g0immatLS04HK5uHDhAhMTE1XCuXr1KsvLy3zrW9/i2LFjVYLw+/3s378fVVXx+/10dXXR09OzJbQbLFLx+/0MDQ3h8/lob2/H7/dz4sQJpqenyWazX4mk0CcNm8qTiLLeVlGjcHeW5b/5O+7emsTWP4DHZWM5tkDy/McYspOAP4Dzm2dAaT6n3WHDsVRUiqRWlrkmX+HFrhcI2SP8PP4Jd0qTFF0FSyvNtNYy0kZNABrWknmKsCcymZ6e5je/+Q2vv/46vb291QEnEAjg9XoZGRnB4XCQSqXo6OggHA5jtzuQZAUBuN1uTp8+zZUrVzl58jiBQIBcbn2TyeXevXsMDQ1VyUvXdSKRCKVSiSNHjpBIJAA2OY4BXC4XBw4cQJIk4vE4P/zhD/F4PAwNDfHmm2/yx3/8xwSDQRRFQVEUVFUlk8kQi8UIBAKbChCZpomiKBw6dIjOzk7Onj3LkSNHCIVCVQLKZrPlEr4K9+7dAzbMRYqiEAgECAQCuFwuJicn6ejoIBqNbon8Mk2TpaUlrl+/DkAikcDj8dDa2orH46kGMlSuu1gskk6nUVWVEydOIMsyMzMzVR9K7SAfCoV44YUXUBQFu91erWK5vr6+iVCEEJRKJVwuFy+88EI1hDqTyTA2NgbA3bt3t83naeLRYmPCKzANg+LEHSb/+u+I/c1PKNo8dP/O79AWDRJ/5y3cH35I8a23WD32DO3HDiK1BbbR6GqiIYSgYM+zKq9ydfYSnc42WpUMVxOfsWCfpaSo1maGlX8iSxVBSHiqlyXs0WcSCAQoFkv8+Mc/ZmhoiGQySWdnJyMjI5w/f56LFy8SCARIJBIEAgFsNht2ux2bTUEqZ5JGo20cP36M06dOoShydfCtDObnzp2r+g3y+Txnzpzh1KlT/PrXv+bmzZvEYjEGBwe3JObZbDZ6eno4ffo0uVyOwcFBAI4dO8bExARjY2MoikJ3dzc9PT384he/IJPJsLS0xNe+9rVN5FQZMIeHh3nuued48803uXLlCmNjY9y+fbtKdIVCgeHhYVwuV9Vh36jdGgk3gkUkyWSS8fFxgsEgAwMDXLhwgVAoRHt7e9UsNjc3h9frJRKJYLfb8fv9VZ+SYRgkEglcLhehUGjT8RVF2ZQHVDFjZTIZOjo6qtcnhGB1dZWVlZVqjko4HCYQCFTDjysRd00ieXwQQlSksKtYTSwz/dOfc+3Hf0s2FuP5H/4JR3/4T3AGvdgHu5mRbCydfR/13CcoV18k8vIpFLt9s9Jw8xE2hB0HDtOBUrKCWhKlBB/FP8an+ohrMXRFw6bJyJKEQ3ViEzY24u2kGlXmp7OBlT//8z//891sKMsywWCQ7u4eVldXqmGwL7zwAocOHcLlcrGyslI1IR0+fNiaiZuCof2DVf9GJby1s7OjGvYqSRLt7e10dHRUczMMwyAYDDI6OkpXVxdCCFZWVgiHwxw+fJhQKLRlgK4cu6+vrxqRVcmlGBkZqYbfBgIBbt++XTa1HeXUqVPVmXvFn2GZ6CJVU5bNZuP06dNV05ckSezfv5+hoSH8fj/9/f3V3JVaCCFQFIWOjg58Pt+mhMzKKkHTNI4ePUpvby+yLFdDog3DqIYq22y2algzUK3FUCgU0HWdjo4OhoaGcLlc24pDGoZBJpNB13VaW1urhFyJpBNCEAqFkCQJr9dLOBxGCFFNUK20TXN18uhRUR6orEgtCNbTGdJTM5j5PL5nn2XgP/0DWk8eQgr6sPf34ejoQo1EUdo6aDk4jLe7E9mmbIxvzccGWBOrigJEbfi9lJcBQYsWJiSHUQwHGIIAQdppp0/rp9/o5zjP8Grna0S90XLSYm3DPp2NvKca8EJUTECfL+PzYQxG97vsnWTcHyZqM+0bhdnuJKe/20TPRpFXD3KN20n/N7qmCpqmrS8GFZUCe20N+PKzMTI5VuZjOEIBAp1tiHIFUVMIZBOMfBFJM7B5XOCwPbV5DzuhVCphGEa1BrwQAlMyKekq49lxFtbmyRt5hGRJzcuYCAR204EiKXQ7exiNHsLr2DqBfFqxNzIxrQpwNtv24nFfNB73wFdxuFck+2sJYieiqexbwa6VAz6nYvD9rqn+uE+SYOZXCQ3JpKzPJSxxW6sMdd2EWCqL21afm1IfH9wENCITE7OspJkXOVRUdEmvyUEUCEwsURUZNx5cuJAeQZ2jJxV7SlqUZLDJZdMIX84++iCD8m6xnbpvvf+mctz7CWA+yKy/fsVVv2LZzdxgt4rEjc7XxGPGpqa3iEEoYAAKZXFHUbOtBMhg1ljzNx3jy/jS3gePov9tFa4FpVxF0S9qwuBrfU31eALb8lFi7/rJFRnsPTTkg5ibtpsRP6yVx4McYy+D8Oc5ZiMxy9pt70dQnxeNdKGaeLzY9M7UzdzKfFHz0dap3SbL1k4D4hOAR9H/6q0IwOYs9kY5JJXvmmiIPZPJg6xI9kIetX83IpIvC3bjs9nr8RoRSBNPJyrm04arYaxVycYHdUxDgyLTzUFwE2pXJhakxhFvTRLZNXaUoG+UKb3TKmMvBPB5zSefZ7byVR6od3tvn6f9HsZM8VE+gy9yJVWfCLoddlplVsRDdV23ijGVTVZC2qixWFdcse7gD3r1Tw8qJRZkScKUlU35hltMg1v/3NiO3eUqfpXHnAruWxyrQhCVQkmNyKTWN7DbRttL427nq3hQPMiD3el8OxHm48Re2/RBr+9hvBiP+uX6oghlu0lXI9wvB0kIgSlMDEPflGldNs5sOucm/9sTPG7tdRz5POcAEKbAxLyvW2lHMtlup8r3TwGRwH3IpL6AVH3lQtjIo4BH9wJ/0Q9jN6G7tb/fz/H+VcEX/Vzuhy/iGTxomzQK/1YUZVMlzO2SYh/VNdWf46s0AZBlGcMwNiqTbrm1XU6KH+DcX9WxoSGZ1OclVFCb5AYPFo30IDPiL3vj17bD5woQeMLss1/25/JF4GGZDy3pG+sd3Pwelq0FwHbleOu70cN6Tl/p5117awLY9l3e3Lpf4RbZM3astNgoomq3NuFGqDWbfZVQe0/3yyfZGZWokr2161etPZ9GbH2GkmWMF3WjnCj/kyreYmnz19KXN2z/Sw9BzbvXbMG9oiGZPKrQ0z053R/wjRCmsJK56o/Fgx3vvuerI8hGmerbBSVsTT6sbNHsyE1UUBcibAokTQdVBYcdnM6NjiMBwkQydEsmSrGBXENIzW5Vg4pvaYN9DXRMTHJSjrxeQMXAxMSsZImWN5RkCb/NT4sUxI6NZsNa2HNosGmaxJbiLMWWOHr0KLIssbS4xMrqKkePHNk8URJWad5SqcS9e/cYGBggGLTk5UulEtev36Czs5Ourk7Kyb01O98/l6UyQav8XF/PMTExSW9vD9FoW/UaDF1YopKw43MvFovE48v09fVhmgaxWJy52TmOnziOy+XcdF9ra2nm5ubo7+8nFouRyaRpaWkhl8vT39+P0+ks62RZx11cWERgycLPzs7i83rJ5fIMDA7g9XpxOOwbE84mmqjCGsQEEpIpyCZXSL/7MeqNW9iiYSLf+i28w0NUVi3SnTnWPv6U0noR7wsn8Rzaj2SzAxJSc8lSh5pgBSFYkdaYjN/mtmOSnCOPqpgYkolpGCi6DVlI2EwFRVZwaC6+7f8G3c4OZEmh2bAPQiaGycLCIu9/8D6HDh0mt17gypVrnDt/rroqsNlsHDhwAMPQuXDhIpqmcemzS7z0ss7Q0CBer5dCvsC7777Pc8+doqurs7q6NIU1mdoVKi9HmYjWVtO8+eabfOc73yEabUMIyGbWmZiYZN/APtpaIzserlAoMjMzS19fH/l8nkuXLjM7O8vRo0cxTXND28oULC8neP+9D3C+6uKdd35DOpMmHA4TW4rxtZe+Rl9fL4ODg2Sz60xMTHDx4meUSiW6urq4cOEC7dF2isUiL738EmNjY7RGwlYbNPvkU49NK9mKZUsChCCXSrH0k38k+eO/Jx9wMSbDgX092BSFteVl1v/DPxD7N3+Jw+2jx+fHNdyPYrOX96dJKFVUGqMyizWJS0l+dfddLvrOQbsAu82icQHukh+PzUe7K4yp6iwsLXNUPki7ow27pDSblD2SiWkKVtfWSCaT5HI5UskUk5OTqKqKy+Xixs2bpNNpDMOgt7cPIQzOnTuHx+NhZXWFyYlJdF1ncGCQ9fV1HA4HklQRH7TOUX2PpK2f1c7ca61llWhIU5jkcjkMQy9/Y6nhTt2ZIhgK0tYW2Xyc8otlmibptCVHD5BMJllfX+fatWt0dLQzPjGOLCscP34UtaQyP7/AzRs3WYpZpXvX1tZoa2tjYXGBxHKCubk52trayucvkclkkWWZbDZLLpdDkiQcDgdD+61a7bZaVdcmmoCN2u/lpAcJCWSJYDSK8vUXWZ+eZvn6ZVZ+/T654VGCLS3E3n2P6f/4I/T5e4z+3u8TPHgAuazrJVUO1exn20BinSxpc5VVLUUunUNXTAysrJ5oupOxzghtngjT2buktGVKRuFLH9H4OLE3MjEMZqZnuXXrFmura8zMznDt2jXGxsb43ne/Rzwex+V0IckSiixjmIJIJILL5WZqagpN19A0jVw+x1JsCVmytgNrcDeFia7pOB0Oi0zM8qRBCHTDQFFs1E3aMI2yinH5mSqyUiUoSZIIhgKcPn2KcDhc3UmYVgKYXD5YoVDg8qXL3CzXj19cXCQajQLgcrm5PTlFdj3L8eNH0XWd5USC+fl5q458bAmny0lHRwexeAyH00EgEKClpQVJsuTke3t6cTgc+Hw+Ojo6KOQLRFojVtGvYonl+HJZ5n6zxlcTTUBNEp0s4W5twf36q/TK4Pm3JqV3zzOVF7QEQyx9+inZ6dt0trTS8tILKGPD4HBULGVNImmEKsvKqJTIy+usGEkyapqSzcCUAUy6RBfD3gEMU2UhNUdMnadoFjDZmi7xtGJPZCKQCIWCdPd0s7a2hsPhYGBgANM0GB7ez+raKplshtMnT+Fyu1hdXSPgD1Rn/5VKf5l0ZiOUtnxsw9SZmZnl1q1x2tra2L9/iGAwyOLiIlO372CYBidOHKO1tRXTFKTTaSYnJsnl8wwNDdDf17/J4b22tsbSUoz+/n40TUNRFAzDJJVKMXX7DqYw2b9/iPb2dkqlErOzcxQKBSKRCOfPn+fll17mtddeo7Ozk7XVVa5cuQKA0+ksm/BMVldXCQaC1ZK2tXo/pmnVIllcXOLKlSvVGiXxeBxN1zBNk7t377Iwv0BfXx/9+/Y1yaSJBthIjaua96MRBr/7Kj1FlZv/x//JytlfkpUVSsUCju4uOr/7fVqeexbTYdssq9IklBrUOODLP2RkK8BBlfB6PAQNB8WcipBMRtr3E3GGeHv1l9xWJygZGoapIURZprnZsHsjE0WR6e3rZXZ2DsO0En6GDwyTW1/HFCZtrW1M37tHPl8oO8YtfaHsehZVVcnnrBrxoVComgBpJQ9Zfpif/eznAMzNzWG32WjvaOcf/v6nZNez1Rrwb7zx20iSxDu//g0TExN4vV5u3rzJ669/D4fdgUCwtLRELBYjm80SCIR4+61f8e3vfJvW1gi/evvXLCwsoNgUpqam+P73v48kSdgddhwOB5qmYbfb6SgX75IQRFrD1fK5QoCuaeRyOQrFAopNIZ/Pk8lmkGUZh8NBbj1HPB7H7/dx6+ZNMtkMnV2dBIIBFhcW0VSNwcFBhCkIhVoIh1uwKU0iaaIRKlNnywkvkBBOG6I3iuN3X6Xz3Du4xj9DA2QcSM+fIfgv/hDj6AEkm7xZVbg53tVhw6JhwXJQOQw7HcEo++1DLC0uoTsNDoVHSK8luZa6woJ9nqDmxxRGDcU3sWsxftMUpFIpPv74E85/eh7TNAmFgtgUG2trad5/7wNSKykOHz5CJBxGkiRcLge5XK6axWuz2VhYWKiuSio1y0ulIufPf8ry8jLf//4bvPDCC3i8Hq5evcbc3Czf/vZrfP3rL3Pl8hWuXL7K3Nw873/wPkeOHuHlr79EKpXinXd+Q6lc1/29995jamqK0dERNE0jHo9TKpaYmZnl7NmzuN1u/D4/H3zwATdv3rRWSKYgthQjHovTEgoxMDDAcnyZjz7+hGzWIktdN1hYXOS9997n5o0bSJJEJBwhn8uzurqKx+OhpaUFWZGx2x3oulUv4dixYyiKQiadQdVUkqkkc7NzrKys8NzpU5w8+SyKrVkXoYmdUPWiIJkmsmYgpQuU8jpZFPLI5AFbvohjNY1cKiFXBjqp5l8T28IyJwo0VFSKDEeGON3/LL/V/xKmy+BC7ALJUhJN0SwZFlMgmnRSxR5GMIGu6eTzeTweD12dXfT29hKOtDAzM8Oly5dwuZz07+ujta0VsMTU7t67SygUwuFw4HA6uHv3Luvr63R2dFhCdrKMrusklhO43W76+/sZ3r+fcDhMIpHA4/UyNDRIe3s7siKTWklVS+cODQ3S399POBwmmUxiGCbCtORdFFkul+Qs6x8hqiVyu3t62LdvHwMDA+Xclw0tJFm2iCASCXP48CEi4TC59TzZTBYr+9jE6/PS19dHuCVMe3s7bdG2agSb2+0mk8mgqio+n5/jJ47R1trKjRs3WFlZwef1gYBEMsH0zDSBYHBT2HETTWxGOVpEsshENnTk2/Ok/+oX3P1f/i2zyQz67/weoT/5E1ZOHWP8+mWm/9f/jfzb7yOnC81VyR6gICNrkCfLZGqcS3MXkNwCn+nlg+R7fGx+yKq0SkmomJooB4I1G7aCXZu5ZFmmo7Odl/xfQ9M0kokkmUyW+fl5XG4XAG6Xm3v37jE9PcPY2CgOh4NnnnmGY8eOcfXqVQYGBvD7/ezbtw9d18hmM9jtdpxOF4ePHOatt97i7NmzZDJZhgaHGDkwwvXr1/nZT39OMBTE6XRy+NBhbHaFzs5OfvWrXzM0OEgsFuMbv/UNnE4nfr+fb3zzGySTSX7zm7P87u/+btXc1tXZyb59+1hbXUWWYHBwkIMHD6IoEoFggHAkjM/nIxAMoCgKnV0deLweLl74jPjyMjabjf7+PlpaWvjk43NV8olG2xkcHODgwTFsio2r165y69YtTp06idvdTjKRoq+vj76+PoSwzHgHDhxA1zWcTsemdv4qKgQ08XmwkWeCEGSSCVZ+9CYz/+avSM5NEf5nv8/If/NfEQ164b2zJP/3f8/aP77NPeGgr72DwOkjyJXSvU3sCAUFxVQo2VTSZoYP5t4nrsfw5cJc1D5lVU6hSwLJADSBXbGjSFKzacvYmwNeWAl4qWSKaDRKPp/n7t17aJpGJBxhZmaWXD6H3W6nv7+f1tYwZ86cQVEUgsEgXV1dHD9+DLvdwfnz5xECgsEgDoeDEyeOUygUuHTpMm63m4MHDzI4OEAimeDGjRuspdN85zvfYXBoAMPQ+e3ffp1z585z585dTj57ktPPnUItqYwdHGNgYICjR49y/vx53C43hw4fIhgI0NHRzje/+Q3OnT9PJpvh2LFj+HxehBAcP3aM4f37cbqcOOxOJAkMQ5BOZ1hOLJdDfa020FQNwzTo6+vDMAy6u7s4fPgQLpeLvv4+7t27R0dHR7nRrETFEyeO43K5WFqK09ISYmxsFEVRkOXN+hdNImmiFqLur/TqKtdvXWN2eRZ3b5SjL79I28gQQhIceO1b9K7pfKbBbCpFYGEerz6G5CwLRTb9xNtDQEAK0u3oobUYwRAqtpKDxekYjlIG0y1wOzy4hGXJ8GeCeBUfsrz3+oJfVeytBrwQ5PN5bt2aJBptpbW1lVgsZpmTJBlFUTDLs/VQKIi7vGIpFopcvnyVg4cOEgj40DSNO3fuEo8vc/r0qY3tiiWmpqYIBoN0dnahKDKlUom5uTlM02R4/wHKVYMxDINkMsXKyir79vXjcrnQdY1UaoVAIGA5wnM5PG4P6Uwan8+Ly+VCVTWWlmKAoKenF0mSrCTJTZn75VBlU5DNZllYWMDlcjE4MAASaKrOWnoNVdWQJRmf34vf70PTdOZm55m6M8XY2Ci9vT3VnCgJMIUgmUwxOzvLs88+sxH333zJm6iDphnomo7NLmO3lyU7TJ10cpmZv/lHZn/2Dp7Doxz6z/6Q1tEhK0wesM0nuP3TX1KMr9D/7W8QOG6RiZAtMmnmmljQNB1DN7HbbVZqAZCUVrg2fZ3/N/5/MZG9iSkJDFMgSTZUWxGhGCiGHUwYKo3w35/+HzgQOYAdG831yR7JBDZ05qpCpvUDYQMbrRCCUknF4XBSK4AqzHLyYL2UVn0CI2CaVdNxdZuKlEr1ZmrPaVIdqKXNoqub9BRFJeO+dlCvbZH6eyvnv0hyOVrNMFHKIb3CtHwvmq7jcNg3Vh2Ve5JA1xPV8g0AACAASURBVHVUVcXj9jS89yaaEEKg6wa6ZmCzy9js5cFKGFYnm0+Qn7yH3B7FObwPXJYUjwlQMlASKYSqI7WFkbwuK/tdahJJLSwyMbA77FaumwRFUWLdzPFp/iNms9PopoGJQJFs6LKKKZnIplUnvtfWz0vhl2mxtyCXS5g97dgzmWxBvXDp/WY/dWRTGZg3HafBTN002UxEFTLZhpAq21RQuaZaoqpea2UDsXmbChFt0czaZiVRIbCG93+f+2uiiQpqyUQpk4kspA35D9PKvBWyjFRbwFeAUV5+CAQyEnIln6LS55r9DtiotFitZwJU8g9LUgld0mtKZm1EbVkqXBL28n/lsIjHfwNfQuy9BrxoMG2vGWwbmfw39tnwD0hszNarA3zdYWtRV1pl43w7PMfqyqWsbSTVfsY2hLLNPWw+8DYf79Snmi9xE7tErd+sUrJ3Uyf9/9l78+c4rvzA8/Mys+4ThcJJAATB+xAPSZSoWxatPtZW2+PpdocnPL2xOxEb+2f4r5jZ9UbMjK/x2Nvtcc92tyW3WlKrmxIpscVTFE+QxH3XfeX19oeqShQKBRAAQRIE8xMhoViVlfnqZb73fe97CkCoDdv02kcKVCOj6nKj4aFr2H0/TmfWrWwDXLaOrjVVQ0OV6pJ+smsSuV5GWUGp/bat+/seN2sWJs3lSJu3dWt7QKsz9+ID1mRefMAp1vpgLvWIWi4tGk+z6inXKlzWi/v8uTyAugBZKhSWPpCtFl+L01vTm0vOLdxnsBW1PlFlq8qLrY91WWRVYdJY8711bY7F6oLr4WFKm67mOtvYllbXqH/fZZGtvHJ82niY57oZy7awbRPLBmGJpaWgJc62unkR18p8ufRiDWbBZ/jW1+c227aXz21yDV0ja/PJI23l08WKwkRK6egVYeVJ56FL1a6Tla7VLEgay+g2f/642rkRHvfk7gqTzeFhKpA2Ur8fllXN7WaaJpqmNd2nqqpFOsaQpRoDxz64xJhJ1eZSHyMbbuH62UrPWL0tpmk6KZ0sy1q+aF5DB9m4i9M6QojVdyatBkirSXqt51hrozZCsyBpvnbj643uptbznYf5HY/jAW2u8ujy5Fmy+2igccxV/9a9TlagbiCs2yiXXMQ56Sa1evN4WKHTag6oozQZXRvnr8axIJuE7Urj42EWp1tJuG4mq9aA93q9S3YCW6UTHlbgbJTHLRgfNVvlfj7rtLrfqqqiaZrzt7lgFtBSF1O3r0jHNbHxwycjQNb6PG/W89hKmDQL6noGc6/XW03oWiuK5CiunD+y5TZOCNfu1MyqO5Nmad5Iq5vV6vONPCAb+e5aVG0P+7A+rsnXneSfLVrd7/pkpyiiGq/U4Dm50maj9vGi52Kjm+WyIx8Pq43LRnX0SqrrjdBq19B8rvoxznHO4QIpLASi5sElanWPGjQbS164Y7XOOistLqaNh6U3qNVDY9v2og/3A3gY4+V6vLygteB7lifw7arqetrvaUuVZ31B3HrBjBR17/t61K7zRu2Api88xi5q/i2t1NCbdc/Wch4pZc3GtLjLEIApTXS9glEzsGu2QCpV0aIAilDwe3wowrMh49PT/lyuxDpzc1UnXdM0saxqenUpJbqu46mVB60nP2xcbdh2tZxuKBRy3peyWlJX07Ql3238nmmaZLNZ0uk0XV1dhEKhZW0yTZNMJkMwGCQYDLZsc/Px5XKZSCSy3N15m97kB/Gs/u6tzjJBUq/DND2DeW8MkYwjdu7A9vqqYXMChG4jZhcQegWSbRAOVCVM7fPHzWr2VSFES4/RVsduOjV3tsYurqCTN/PczNxkYmGSijCxBQjDxlQkKALNVtCEQmeonReSJ4h6Y4+2nU8R6yyOpWLbNpOTk4yNjfHiiy8ihGB0dBTTNNm/f79zbP0BqVQqlEolLl++zNGjR4nFYs77ly9fpquri8HBQefBSqfTpNNpCoUCs7OzlEolDMPg9ddfbylMLMtiZGSEdDrNqVOnWgqURorFIleuXOH111933nvcHmkuLhtCQmEhzczPP2T2F79EObybgR/9kPi+vc6qWUzNce9ffkV5epae77xF9MQhFE17BMFSa2e1cSVltU5SpVKhvb39geN3E1sFjn2pak7KiwJXJq7y8exvSJPB8gqkCrZpYQhAUfBZGsIG37Sg399PpC3qzhs11h0Bb9s2MzMznD9/nueffx6AsbExzp8/j9/vx+/3I4QgmUxiGAYXL15ESsnly5dpa2vD7/fj9XqpVCpcunSJgwcPMjg4iJTVeiP37t1jenqaqakprly5wqlTp+jo6KBQKGDbNu3t7aiqimmaTE5OkkqluHfvHmfPnsU0Tdra2jBNk2AwyIED1TT4jW1fWFiopYc/iZQSy7KwLItgMLiqjcjF5UkhHXdfSWZ+jttnPmf0w4/Rrlwgum+I9oEBUFRkKk3lZ79k/K//lpRt4d3bT/DIXrxawzBfqv5/4iiKwr179zhz5gzvvvsuR44ceUxXrrlVN6j/FkhxYfwidzy3IQm2T2DXPg+WwoS0EMlQFNPQGRsZJ2NmMaWFJjTXcsIGhIlpmpRKJee/u3fvMj09zfz8POfPn6dSqaDrOt///vexbZtPPvmEYDDI5OQkX331Ffl8nr1791IoFKhUKk7gUCqV4uuvv2ZycpJKpUImk2FhYQHLskin09V08oEAb731FuFwmEwmw8cff4zf70dVVfr7+5mbmyOdTnP//n0SiQR79+7Ftqt134eHhzFNk9HRUSYmJjh79ixQ3amUy2VOnTpFT0/Ppnewi8vD0bB6BkLRCLuG9qC2d5G7N8zcJ78lcfwYyVgbt39zhvTf/B3+L79k5+//PrGeXpRWNsstNPMJIUin0/zsZz+js7OTffv24fM9hmJxdcMTkrp9PUWKUXOcO4HbFGUB05DVzMFIBjI9HOw8QCLaxcT8HDPeSXIyhylNtFrGrmeddQkTy7K4d+8eV65cYXp6mm+++YYLFy7Q19fH6dOnKZfLFAoFJ9Cxmoo+TjQaZWRkhGKxSDqdJpPJMDs7i1KrhgiLtpZ8Po9pmuRyOcrlMqOjowgh8Hg8vPTSS7Wa8RYzMzNMT09z+vRp/H4/hw8fxjAMDMPA6/XS19eHz+fDtm3Gxsb4+c9/zp49e/B6vezbt6/mKVO93rVr19izZ48rTFy2IHJxAS0g1tlB7N++h7Rt7vzD/8vsbz+n0x8m1tbJ1GefcO/aRTqjYZ47/SbJ40fA62WJi/AWm/Pqc0U2m+UXv/gFu3fv5sSJE/j9/sfbEAGmMNBlmVwpTU7JIoVAKAqmkHgqfQyGBjCUMnfTt5gpTFKxy9hYbt7WGhvy5jIMg1QqRT6fp7u7mxdeeIG2tjZmZmYYHR0lGo0SiUQol8s899xz+Hw+hoeHGRgYoK+vD03TKJfLQFXgKIpCMpnk8OHD/O53vyMajeLz+fB6vbS3t5PNZgF49dVXHdVUOBzmjTfeYHBwkJmZGcbGxjhy5AhSSrq7u+np6Vli4LMsi2PHjpHNZimXywSDQQKBALt27WJycvLxrIZcXDaAo4kRAqEJ5IFB2v73P2Wor5PSf/q/Uf/275lWvcTzaXY/f5zId75N6DtvI+OhxUlONv1tPvkTQkpJIBDg1KlTziIzn88vzeb7uNqCjY2BZkFnJMEOTz+52RyWYnGi8xC+Mvyy/AlXjCsoqgdT6NhY4IoTYJ2JHguFAtlsFsuy6OzsZO/evRiGwejoKPfv30fXdcduAVWV2O3bt1EUhbm5OSYnJ5mYmODkyZMoioKu60vsFKZpMjY2xuHDhx1h4vV6yefz6LoOVAWapmnV+vOJBFeuXCEUCvH555+TSCTQNA2fz0d3d7fjGeb1eolEIrS3t3Pt2jVSqRShUAifz8ebb75Z7QjNrZjmsgVp8sSSgK0qxAZ2kPjW7zH70S9Z+OosaWxAJbp3gJ7vvUto/+6lU9wWs5XUsSyL7u5u/vzP/5zPPvuMWCzmxNg8amHSbDjXUNEsFVVXaVPaeKvrTbJWFkWz6Ul2cfnWJb4yLzLnXaCdBNK2tmQmgSfFmi3Otm0zNTXF+fPnKRQK9PT00NfXRzQa5eLFi3z00UeUSiV27tzJwMAAUBUOd+/eJRwOEwgEiMVi3Lhxg8nJSSKRiLPTqaNpGgMDA0QiETRNc9yGk8kkBw4cAFjibjw/P8+5c+fw+XxYlsX4+Djj4+Ok0+kl5218aAKBgJPzKBKJOALH9chw2ZKIpckEBSAqJsrYDMWffcj45ZtMh9rJxTqY8mjc+Owz5v/qHxBf3wF7MXvXVpzy6nE0yWSSoaEhdF2nWCzi8/meyOJOqdWrLMsC9+eGmZ2ZZldykKM9RxiuDHMl/zUlu1RNJGC7cqSZNd8xIQSRSITnn3+eTCbD8PAwmqYRiUTo7e2lXC7z+uuvL/GeEkKQSCR4/vnnGR8fZ2BggEuXLuHz+ejo6EBKuWT14fF46OvrwzAMKpUKtm2j6zqRSIShoSFgMWCyUqmW+NV13am5/vzzz6OqKn6/f5lnlmVZKIpCV1cX09PTJJNJ9u3b57TTFSYuWxYhFz26AGVqlpH3P2Lqr/4bqckUkTe/QyIR5u6Xn2HeuUXq7/6R7L79xA7uRgaWqm+32mOuaRqBQADLsnj11VedncnjHo9SSGwsLGlgeEqkzRTf3LnGrkNDCN3PpanL3LaHqYgK0raR1mNt3lPBmoWJoijs2LGDZDLJxx9/jKIoFItFJiYmnAzDU1NT6LqOlJKhoSFUVXXUTeVyGcMw2LNnDzt37kRVVYrFohOwWCcej5PJZBwhoyjV2vLlcplcLkckEsEwDMeF+KWXXuL69esUCgXy+TzRaJRKpcLc3ByqqhKNRp04Ep/Px8GDB+np6SGRSBAIBBgeHqZYLD52/ayLy9qpCRIpyaUWyH3wMdf/5r8z/s01dv/e2xz8P/8DbR1x7F8Ncfuv/4H712/i/e059r/2Cr4jexGauiRyfquo94UQqKqKqqoIITh+/Di6rj+RTOT19ggDLK+FqZjcqnzDJykfUT3KnfwwOZED00a1wa+reNBQhDtv1Fl3BHwul2NsbIxEIkE2m+X69euk02k8Hg83btygUqng8Xjo6Oigvb2dkydP4vP5UFWVrq4u9uzZQywW4/Lly1QqFaLRKFA16o+Pj5PNZsnn80gpiUQiTs30iYkJxsfH2b9/P7lcjpmZGfbv38+BAwcIBoPcunWLCxcuoOs6uq6jqip9fX288847zk7I5/MRiUSIx+MA5HI5hoeHsSxryY7KxWXr0FCGTtqkp6e59/FvyZ+7iD8SJPGtdwi/8xJ4VLp3JFB1hbv/+e+Zu3CTzss36dq7q+oevEUESDOKojiTeSAQcFRcj19TIPDjI+qLIIGK1Jn0j5FLpQiU40x5Zyh5SgRsD6Ii8BYFfsWPomjLCgU+q6zbm0tVVQ4fPkxHRwd+v5/BwUEngr2u5/T5fASDQTRNY9euXZRKJV5//XW6u7udnUU0GuXtt9+mo6PDOX/dqysej9Pb2+sY4k3TxOPxEA6HkVI65+3u7sbr9fLCCy8wNDTEyMgIU1NTlEolpJREo1HnnG+//TZ+v39JigpVVenp6SEWixGJRDapS11cHh3htjg9336LWEeCQHcHPW+9gsfrBWmT6Ooi8cM/JtrVSW4+S2D/YHVX0sgWnPfqgqNZS/FY2wAk6eKdPd9GmoIxZQxpVRDSRjXDVHwVbM3EY3uQlmQg3kdftB9NuI47dYRcR5a/elWy5pomdfvEw25N67EfrWiuR/KgY+pxKw9iLed1cVkLm5njrR4z5fF4FidZWUvOZdpQ0sGrgs8HTqEsELIalyLtai4p0TgG3Mfboe556vV6HRW3iQUCUsyTkRkMSkhhYaNVU9VU0z4CkCRBm0yioi0WJINnuo/XJVZXSuO80udrZS2DcC3ndgvWuDxJNqua58rnqAkGjwqOgKld23EhFqCAVBoWdq7X0ZrQqNZ+7xRddIquNX1nWfjOGu7/dp1rHlqYrDf9+0qfbZZH1XoLeW3XG+vyZNjs50nKplzzy4LZ69JkaTzKknZsUozJZpcq2Gpjb93tEa02IlvrNz1O1m2Ar7NSedFGHnZCX8uO5UHHtBoAzXVY1tNWF5eV2GwPJEeQtEiF4ry11uttQrO22xhZqaDfWo51Wc6ahMlmTOoPczPWsiJaq1BotbtyefRsd6HdXBtno9RVZc0BvRts1PLsKY94HK6HJ/ksCCGW2Xq367P5uGgpTOqRqa0qocHjewgaJ6Dm669nJ7KWz9bSDpfN4XE/P4+DzbKXAI4wsSwLRSiYiokQyzVVzb3Y6KIqxeb+/kdxz1bTZDxM29fSVtu2HYeiFb8jG/u46XNhI59hlVYrVtyZ1JMkbiab+XA/rEphPSvlzZwonnUe5+rvcd23xglpsyZBZ+UsWGInWQ3Ho4uVJ8iN7KAeZT+2Ou+jClhsPO9K9ecbPVWFY65qYXSSEqe85QrXetZoKUzqndsqKvxxbZMfdJ2NPnAbteu4uDxupJR4PJ4lZRo243ndKjv0h/XeXA/Ni0fLspzwgfo812iaqlZfrL1jC0eoLx6kPDA3zbMmUFa1mWx0sn4UdpP1XL9VjEk9hsUVHi5PFeuZj9aYKmWrjIGt0o46sqH/JIBoim2vO0MI1pTkbKv9vkfNhsr2wmKgYmOgYaOtpVXA4JpWVs0pUlegcbu60jnrbXvWVgguTz+OOsr5X/WFjYWOgY6OXZvZBEpVtSUE9W8pCPx48KCxOEMudR9eL9t9chSiGhSqY2FV0z5WP1CUWhEsG0UoKEJBRcWHF8W1mzhsOBdAo+61UqlgWRaBQABYjJRv1kWapomUcnkerOYVAUufdylrC4FVVl62bVMqlVAUxWlHYzvd+u4uTwtLFz813b4UoNhITKYKE9xLj1LSS9h1YSJVJ+mgLSUdbXH2xAaJKZGaDaU+cMSaF2zPFDWpXTFL3E+PMZOZoyJMbKoZmy0MEBJVqggpaA8mOZDcQ8gbfNIt3zKsqzhWfRdQKpUIBoNIKdF1natXr2LbNocPH8Y0TcLh8BKjnRAC0zS5c+cO8/PzvPTSSxQKBSfhYv389aSOpmk6u4pYLLZqu+rXqVQqXL16FSEEJ06cYG5uDr/fTzwef+xZSF1cNo/FoEUDi9nSHGdmznE1fQ3bY4FWFQ7C1lCkhmp7UCyFmAwjPJJDoQN4hRe1lhDEZQUk5ESeb2a/5pPZs6TMLCKgYkoLpI1qVu3tXtuLbUg8s36SoTghbz9uv1ZZVz2TunAolUrcuXOHvr4+MpkMZ86cwePxEAwGCQaDTiZg27aZnZ2lUCig6zrnz59nbGyMcDjM1NQUp06dqgoLUc0lVKlUGB8fx+PxcPHiRXp7eymVSk6NkoMHDzoJGW3bZm5ujlu3btHf38+dO3e4f/8+Ukqn1G89AWW9/S4uTyVCghTkZYlL89f5Zeoj7gRu4Yl6wGeDhFAhSoIO+iP9qIqXL+a/IJjxsMPXTcLTjormznkrUdN4jIhxPpz6lF8qn6J3WKh+gS1sFFvSnUqwI9JDJNTFbG6aW5N3+X39dXrtLjTF62YOZp1qLsuyKJVK6Lru1FJfWFhgdnYWv9/P6OgoXV1dZLNZIpEIlmUxNjbG/Pw8lmUxNTXl1EBJp9MUi0Wn3ogQAsMwOHfuHPF4nDNnzvDee+9x69YtduzYwcLCAvv376dez71YLDp/r1+/zhdffIFlVXWc586dI5FIsHfv3kfSaS4uj5Jm99U6OibThVnGyiOMeu5iFmzMiomQku50Lx3RDrrCbaSzC0zk7zEldlG0isQ9bU/qpzxVpMkyXppiMjROqpzGrhgoqsC2JIHMIV5IHCEa9XFjepJpOUraWEC3dTTFgyup1yFMbNsmlUpx/vx5FhYW6O/v5/79+9y7d89RUU1PT5NOp5mfn+fkyZMEg0FUVSUYDNLR0UEmk2Fubo6hoSHOnTu3zPVYURQsy6JcLjtVEUulEidOnODOnTvOrqRQKHDp0iVUVWX37t3867/+K8Fg0CnDa1kWt2/f5tChQ4TDYef8rqrL5WlBNBrW61m4hI0UJrZlIk0Lj1RRpEBiE7Oj7AnvQVfLXElfYK48jR02sW3rwdGOLgBoCFRbIko6qtAJWB4UVGxhMxDrpz88wJe5z7meu07OLGHKqqHeMeU+47aoNVul60FUPp+PqakpxsfHHWHQ1tZGMBh0imRFo1GnglosFmNubg4pJd3d3RSLRaSU+P1+gsHgkvMLIZziOHXhYNs2t27d4v79+44RvV4f/s6dO8zMzDA/P4/P52P37t3s2rULn8/HwsIChmEs+w0uLk8FQiCEUhMogAAbE1uYIG0CXh9DsZ30al0EDS+723axI9zPaPo+N/PXKJABYaPUZ7nGHF+Spf9+1nGc3GyEbeI1LPpiCZ5L7mOH7KBX7eBI52FkBb6e+JpZMYOu6kilKV3NM96n67KZJBIJXnnlFfL5PJqmcezYMcf11jAMJiYmiEajnDp1CsCxX4RCIb766iuKxSKzs7NcuHCBt956yyl2BYsux4Zh4PV6qVQq6LpOMpnkgw8+IJFIOEb5QCDACy+8QCKRIJ1O4/V60XUdwzCcnc1mR++7uDx26mufhqWvkDbUdth72/Yhyxbz1iwH2vaTsxf4Zu4aM+Y0FirSFuAa3teMDViANCVRf4TXOl5nxppF86pEI1EuDV9gtDROTinis2taFbdrHdZlM6lHi6qqiq7rLCwsOHXcbdsml8uRTqed4+veXj6fD9u20XWdvr4+p047LE/VUN+tFItF8vk8iUSCiYkJR11VP9br9dLZ2cmNGzeW7FhM03TO67oDu2wnBDjCpFgoUpgscsQ4xIvJF/D4fFyYvMRY/j4FfwGtFMSyJbZscAtu9BB2WYoAG4mFRFiwMD2HV/FwMn6SuD/G5fwVLs9dZsGfJu8poxF60i3ecqw7BX2pVGJsbIx4PO4EJ4bDYadUbyOmabKwsEAkEuH48ePcuXOHcrnMK6+8wujoKOfOnaNQKHDixAkCgQCZTIZdu3YxPT2Nx+Mhm83i9Xr5gz/4AxRF4cMPP+TkyZNEIhHu37/PhQsX8Pv9KIpCb28v/f39VCoVfD4fIyMjm9pRLi5PBCGcaGsNBc0UWLZOwcpxZfoy/d0DdMV3cGHhS84tfE7KXgAvIG1s00LacjFY2xUkqyKQSMOkqJbJltP8+v6nHOs6Rns6wW9zv+GedQedMlJaYJooUlkatPiM9++Gghbb2to4cOAAyWSS6elpBgcHMQyD0dFR55i6oEkmk+zZs4eRkREmJyfp7u6mra0Nj8fD119/jWmajr3E7/dz4sQJ7t27x7Vr1wiFQiQSCd577z1SqRQ//elPyefz+P1+RkZGSKVSvPvuu9y+fZv+/n727t1LPp93dkfuzsRlOxHAS7sSJWqE8RcDpOwFvsr9jpHyCF9nLzBpjyBVBW/BR6QUJuYP1aK0lWd+ontgskoJUREhYcVRTA3bI7hS/pqxyjihSoARbYSCVkRUwKd7COf8hAjiEQ1uwc94H69bmIRCIU6fPu0EE8bjcXp7e5mfnycUCtHT0+Mcq6oq7e3tTjCi3++nr68PgHA4zMsvv4xt244hv6OjA9u2CYfDnDx5kn379hEKhZzjv/WtbxGJRFBVlaGhIXbt2kUikWD//v10dHQA1d1QqVRi586dtLW5LpEu2wcPHnYmB9ifP8DY3BQZmeF26gZ35W3KIo9H01BsD9iC3YFd7E3sJuILuTEQNR7kgBMnzuGeQ5xb6EMv6VVX7PIcXinQbRNhqngtDVUoJKwEYTWCJly34DpCriNxVaOxvG4ML5fLBINBcrkcY2NjdHZ2kkgklkWdF4tF5ubmiMViS6LaW1U7MwwDwzActVnjuZqba1kW2WyWYDCI3+/HMAwWFhawLIuenh7Xg8vlqcQ0bSzTQlUVtNpiyxRlClaWc9kv+WLqS2aLc5gYKLbAVkxQbQQKoHCk8xDf6voufdpONKouri6L6LqOZVl4vV5nMZsnx3R+ml+lPuTG3A1KVgmpSDQpMGqpVTSpoikaO9Vd/HD3n9Eb2uHm56qxYWECVTVS484CqpN7Y16u5vxcKyWBbHUdp5GrCJPGY1xctguWZWOaFlpDinSERGKTlRkWygsU9RKWtFqqWdoDbXT4OvHgw105L6eVMIFqXrN5a4F0IUXZLmELGwEotWlHlRqKUIn7Omn3x9AUV0jX2ZAwaVVMpk5jFuG1fL/5c1couLjUdiZWdWeiqiqiWmADBJgYmNKqFcNqnf1UQeARHpSN53Ld1qwkTCRgSAMpbSyqWYSplzOR1HZ+AlXxoLp7kiWs60lr3hm0mvxX23Wstz67i8uzi0TaEllfEjdU9dPwLg7cbT5k1rrW3ay5Q0jw4qldvLkxTa+3ed+vl1WFSSth0VxadLVjXVxc1o+UNUHi7ORbHPQMDLVHWYeoOe9Z9c3a/xrrvkjZJFQ2p+O3Y42lFYVJPd9Wq/db0ZxyfqOsVSht1HayHW+iy9biYSuUVseehWVWCzKtUOXHOXY786h2JoZhOGEJjprLbrhWi3xmzTJFabANy3W0lXUe+7Sw6s7Etu1laq21CJP6v1vxIIGzms2l+biVWO372/Emumw91jO5NdYKqo8jy7IwLdMRJkKI2opZVHUxyFXH42a1rbGNjX8fJQ+MCXmI89YxTRPLsjAMw5lLxLJLLuqyZIsuq84yoma5Wv+92G5z0YrCRAiBpi1+/KAf/iBB0vwwruTttRorpeZe6bi1vu/i8iRpFiaAs2pWFAVN0xCKUrMF10qOiuXjZcWFWotV9nrHwkYF11ajWU3v9XpRFKXa98skRsOOsGV31bxbt0G/bAar7kyaU8TDg4XGWliL4NkstZmLy9OMqqqomlbNIswGNfbPvERB1AAAIABJREFUeGr0VtTnGI/HU53nGjMq1//atXrh9Y6vyfHGCsgui6wr30jj7uJhVipr9epqXKmtdq1mVZyLy3ZBNOTmgrU93+4Y2ABi6WspJLawsYXt+AVLJxWk1Uon9syz7kSPjRN843uN/4bWAqPZHrIWY/laDeoPcll2cXnqkbI652VyMLsAMT+yPYFUPIu7FtNEFIpg2hAKgNezmCzSnf9WxcCkQoWJ8iSpUgpdVAu/SymRpgVINKmgCkHEm2BXaJCgGnjSzd4ybCiiqR7FbpomIyMjDA0NOe/XjVnNKjLTNBkfH6dQKHDo0KElO47Gib9uFKsX0KobI6WUeDyeJW1YTWBIKSmXywwPD9PZ2enk7nJxeZpYsssQUCkWmT/7BdO/PoPnwE76vvsukY7exYV1ocjE777CnMvQcfw5/IM7EB43f1QjrTQrUkoqosK92fv8dvoz5vR5ZFABrZY+yjCrMSiWgrAlfj3KDw79CcGoK0zqrLueCSzejFwux29+8xt6e3sd/WP9c6gKhkwmg8fjQUrJ+Pg458+fJxQKIaVEVVX6+vqWuUWm02muX7/upKa/efMmhUKBl19+ednuqPG7zV4g8/PzfPDBB7zxxhskk0l3t+LyFFHdawgEoh76IGFhappbv/hXxv/Hz/D3dRNJdBL7bmdVv1/R4cx55v/m75hPZxH/4Uf07OhC83gXT+my4jwwLxc4O/YFX+hfYkRN1JAHNIFtg7/oxSM1glJFmjbZ/ATpSppe2Y0i3OzksAE1F0CpVOLKlStMT09z6dIluru7yefzBINBTp06RTweB6BcLvPrX/8aqGYbnp2dZX5+nnPnzjEzM0MoFOJHP/qRs4upF9MC+OabbwA4fvw4n376qZNluHkXA7RUnZmmSblcpq+vj/b29mW/YaWdkeMmuEqwpovLY0E2qaZsiVfR6BE+ZN5k4dwVZn57lsTJE0T8ASYuXyX7N/+N4s/fJ7b/CEHNjxBq9Tzu47uEZnW9QDAvUtwu3eF+5D7liI6lgS2qSWsSdpyeaDfdkT4yhRQpO01e5rFsC0V1hQlsIJ2KbdvMzc3x/vvvs3PnTo4ePQpALpfjww8/5ODBg07qd8Mw+Oabbzh27BiRSIRwOMzOnTuRUjI7O0s0Gl1yQ8vlMleuXOHo0aM899xzTqbhiYkJ/vAP/7Ble6C1yquuGnvjjTfo7Oxc1Wtspd/qGjJdtgay6rYqBG3dXST++HuUc2Xm3v8Z87/8NZmOXiLt7cx99CG3PvkYrVjm2Juv0v7iMfB5XUHyIGrD3KBCWRZIVxbIZrOYStXkLgVEMj4Gkr20hWMMz91iqjRC0cxhSRMNbblb8TPY5+sSJvWMwIZhUCqV2LNnD+3t7Xg8Hnw+H5988smSyVnTNAYHB9m7dy+ZTMZJXa9pGqdOnWJoaGjJ8YZhcOfOHeLxOC+88AKzs7NcunSJtrY2jhw54hyn6zqZTAYhBJZlkUgkmJubQ9d1otEobW1tWJbFwsICpmmSSCRQFIVSqcTc3ByqqrJjxw5M0ySXy6HrOqZpEo/HMQyDSqWCEIJkMolpmszNzSGlpLe3FyklhUKBcrmMaZp4vV6SyeQm3AoXl1bIxVLwiqgKh+efo0vT8Jo6cz//F8b+43+hGAiQG7uDKJRIHjpB7LVT0N0OilsYa1UaXIFNDMqyRN7MULCzWLUdnaVAVzTJUGCA65lrDM/fZk6fpiLL2NiuY0ONDRng/X6/UxQrHA5jWRaapuHxeJYYyX0+H6+88grT09OkUik8Hg9nzpzh2LFj7N69e9nOxO/3c/jwYUZHR7l79y6maTI9Pc3p06edGvCWZTE2NsYHH3zAa6+9RiAQ4LPPPuPgwYNomsatW7eYmppy7CuGYZDL5bhw4QI+n4/+/n6KxSJnz55l586dfPDBB+zevZvBwUHm5+c5c+YMJ0+exOfzcePGDW7evMnevXsxTZOLFy9y7Ngxrl69Sjab5eWXX17ye11cNp0WXlhWwEPi2AE6/vzfot2/weSnnzKNRJHQ9dIpdv1v/yttLx5bdClulY3FpUpD8I4UEmyJqit0BDo4FD5IvpRH+gXPRQ4xOTvBufznjNmjIKyaq/DKmZufNTZkgFcUBV3XuXXrFpFIBNu2mZ6eRkq5JGpeVVXa2tr45JNPOHLkCPF4nH/+538ml8uRSqVqKbYXvb68Xi+HDx/m9u3b/OVf/iWpVIrvf//7HD9+3DnGtm1mZmY4f/48p0+fxuv18pOf/ITvfe97+P1+hoeHuXbtGv39/U4hrkwmw49//GO6u7s5efIk+Xye8fFxYrEYv/vd79i7dy+9vb1OueDvfve72LbNRx99xKeffsp3vvMdSqUS58+fp7Ozk9u3b6PrOn/0R3/kChOXR4xA1tW5AqQUgAW2iTQNbGljS4FEYmGBrmOXdbBtd35bD/XYRFsgpY1tWTznP0h7ME4oGGPUGuPXM59yXfmGor9IzAg5wqReHaB+nmeVFS1Hje5zjW50dVddy7IoFAqObaJeKKsucOrH3L17l9u3b5PNZpmfn8fn87Fnzx527NixRPDUsSyLVCqFz+cjkUgwOTnJzZs3l7TLtm18Ph/RaBSoCi0hBOVymfb2dl599VUCgYBjZNN1nVKpRCAQoFQqIYTg4MGD2LaN1+slHo9XI41VlUgk4nibZbNZfD6fUwDs5MmTBINBPB4P4XAYv9/v1pl3efSIRRu6AqiFEjNfXeDq3/53Jq/exb/neXaceA3R1s7M5avc+U9/xcIXF6oCxdXBrJl6jgFDMZjMTHL99jUihEia7VyauMQd6zZFpYSOUc3qTGPvuv28bDZfSzbe+sQbi8UcO0M2m112jkqlwuXLl3nppZfw+/1cvXoVj8fDvn37aGtrWzYRVyoVfve733Hjxg1Onz5NPB7niy++4H/+z//JyZMneeONN5zzN1Z7DIfD9Pf3097eztTUFKVSiZ6eHqamppya8gMDAwSDQU6cOIFpmhSLRUcwNiaNtG3bydnT3d3NyMgI/f39RCIRxsfHHUHjene5PHLE0ukKCbKkY529xORf/z3XP/qE2J5Bdv/7f09fVzvpj95H///+hclbV+n99DMSJ09AXxeoCihN6jL38V2GioJmCWzNxKDM16mrtGfihGScGwvXyIo0trTAlCiGhiY9KEKtqRNFNV39M9yxq6q5VvKAUlUVTdOYmZmhVCph2zYLCwvE4/FqUrpagjrLsujo6OC1116jXC6TyWTI5XJ8+umnxGIxFEWhvb2dAwcOIIRgYmKCTCbD8ePHOXToEKqqEo/H+fzzz/nyyy/x+/0cOnQIr9dLJBIBIBAIMDQ0xG9/+1tisRiVSoWBgQGnglr9HG+++Saff/45H374IeFwmBMnTqAoCpFIxNkhKYri7GiCwSBHjx5lfHycs2fPEo/HSSaTjrOBoiiuUHF5hNQESePjZcPs2CST//wzZn/+PqJUJvl/nCb2Z+9BMEDPnl58Okz/00+Z+s05Ym++QXvn26gB35P6EU8Vfrz48WJJExOdWXWGM5Nn8OsRJtVJCloeaVV3h0LX8Cg+VKFWb9Hi/55ZeaL+xV/8xV80vlFXDa2W+Reqnlq7du2iu7ubrq4uurq62LFjB7t373bsIKZp0tPTQ1tbG6FQiJ6eHrq6utB1nbGxMWZmZtA0jYGBAQCy2Sw7d+5kz549qKqKoii0tbUxMDBAKBRC13V6e3sJBAK0tbWxc+dOwuEwHR0d2LaNx+Ohv7+fo0ePOsb9UChEMBiko6ODUCiEYRi0t7dz7NgxfD6fc55gMOgc39PTg6ZpRCIRkskkUkrC4TDPP/88iUQCn8/Hjh07VnQ5dnF5WOqej4qiVLPaAkJKCtks9y9d5P7oCIFjRzj8735Ax6H9oKpEEwk6OzqZsQ3SwQDJk8cJ796J4tGW5Z561qlrJDRNq2pIJFjCJJfKMZIbwSrYBIoBrKzEykts3can+wgXI4TLYXYU+vnewB/TG+lFEUpVRbbhTJzbgzXXgF+WeqBSweerrnjqq3TDMPB6vc4xpmkuM1DX05xMTk5SqVQIh8NOBH25XCYYDLa8vmVZFItFQqGQ4xJcH2j1a9WvV99pNOcCqwdF1tVY9WMaf0NdzdUY7V+vfVBP77JSyhgXl82i/jxrmrZoW5QSs6wz880NJq7fJNjbxc7jzxGKxR1/IqlXGLl9G5kv0jU4iL8jiairuJ7hia6ZejiAz+dDVVWkBFNWmFqY5lL6IvOVBUzMqiZGUap1ZRQQdlVwxGSc13e+STKcdLu1xjJhstYKho1G+bUaoZtTz9fP0ThxP+mV/kqJKrdC21yeHUzTxDCMJYsjh/o4anD9lU0GYFGXHo2uxe7j69AsTAComU5tUU09b1PNsKGiLO86N6vAMpbZTNY6YbZSha1nwm0liLbCZO0W1nLZCrRa1DUsxZbNY/V3JA1jsFmIuAb41WnsJwkKSvWFqCVGo+Fzt/+WsaHcXI24K3gXl83lgZrn5ZLEmesWxYy7cn4QK81TilPwvWYEaTSuux7AK7Kia3Crjl5rUauNfu7i4rIyq46etQwtd/g5rFrcr9mQ3qrf3L5cxoo7k/oOwzRN573GeIzGY1rtRpoTJTYet1rd90Zh1kqV5iZg3Fy2S23vlXhafltzGYW6Ab7R4aNxlltUam3e71upqulqHp6PgpXmhLWw1jbWnWqqxndZv9Ayb2yEWKWP3d1fI6vaTFrVYm9Vv73VhL9SCveVvtOqHaud42mZJJ4GtuuO8UmqXDfyfLYqV73smKYXTbWzam82/LtZDf0U6Gmahdpm38O6t6Zt207VGNnKECJrcaOilm6zlXpxg9ffjvPXA4MWW7m/unYRF5dHQ+PYqsdB1N3rqxObwMl23rRhEeAIkmUOXJswXFvtWJ5W6h5yqqotneMakw5YdlUYq2KJXcrhGY8raWZNBvhm4fE0P0QuLluZ5nG20k6+nlyw0TZM8+tH2LbtgBANu41GTy5T1tLPiOpf12ayJhxh0mq38aBt5qPahrq4uNSp1TOxl7yFoBoPIWjwPnIOtGvFmpSlai7XpbU1DX1iY2OrFlIBu16kUgBS1rpSIIVEQUFDbeGk/eyy7txcsIIPfAtbiouLy/poqUKWVGu81ycuw8TSdSyfgurzLobUSUDY2LYBUqAoHkBdfi53eLZEIrGxWKikSOUyVGyjqlK0bWzbqgkUgVAU4uE43eEufKr3STd7y7Ch4lh16lUX79+/z+DgoJtexMVlk2kMVERK0A3kha9JfXkBdW8f0ddPYsbaENgIIVEyJezrNxGFCuzbA93JatbgZnXOwzVm+wkkCTlRZiI3yecznzNTnMHUbKQiEbYEu5q/SzNBkZKAGuJP9vwRveHeJ93yLcOqwqSVGqtcLjM+Pk4ikSAej1Mqlfjkk0946623nLK2wWDQrfPh4vKQyFpKc4moqlhsmJuaYvwnP2X6f/wc+dwuDsZDdL/+ajV9ijQxr9/i3n/9RwpTC+z40Z+SePd1tKC/qqvZLEGyTclS4Mv7l/m89CV6REcJKqCAIgSq5UWgEDRUVFuSmR3m7dKb9IR6XE1MjXWpuWzbdkr0FgoFFEVhYWGBUqlEuVwmnU4Tj8eXJVh0cXHZOM4w1ARqyI9/9xC+3l5SFy9z9T//FVapQlc4zO2rlzE+/DX6mfN4X3oNrTOJUGvjUNY0XO685yBrcSV1QbnAHDfT17jrvU1FKSMtWd0NCpVksYP9HftI+mOMTN1jmhmyRhbTNvCoHhZd7Go8g/28ZjWXlJJisciVK1cIBoPs2rULKSX5fJ5XXnmFYDDIuXPneOONNwgEAo+yzS4uzwxOOdiqloV4dydtP/we7X09jP6X/8rMhx+TvzlCMBghd+sq92Zm6B/cw4E/+QNiLzyH8Klsysy2zSZHJ1i3wdZbIMUCE0zIe+QqWajUXLQVhU6ZYCjQx5h6n2vFK0wzR44MpjTQpOYa4tlADXjLsrh8+TK9vb3k83k+/PBDjh49yvz8PPfu3QPgvffeW3NwoouLywNosK9LQE3Gib77Bv2mTnBiFOvMb0khSGAhjxyl48/+HYFXX0D6FwWJoEEwuSxHgMRCSh1hWUSDIXxqkHwmjyUkB7v2ERJBvp6+wpg+iqkYWMLExn7wuZ8R1hxnAtWqhsePHyccDjM3N4dhGKTTaQqFAh0dHXR0dODxeDBN06nL7gY4urhsHFmzu9dNHvU0Kt6Al+SLx9D3DDJ3/nMMbLwE2Hv0OInTb6N0dTrH1yvBK4DienOtSFVYCxRbIRFL8GL4RSbLk6gehd5YF9dnv+Zm9jYpT4ag6anubnAd5OqsybDRmJsnGAySTCaZn5+nra2Nnp4eFEVhx44dLCws8OKLL+L1elfNv+Xi4rI2ZOOLmlpGYiMxKc1PU8nMI7CwkBTRuT41ysTIXSiXgEVhYvJM2NAfHgmWYZHP5Omlmze7X+Nbne+gW2WuTX3NnDVH3lvAwtzkzGhPP+uymQDkcjk+//xzBgcHsSyL2dlZvF4v5XKZ2dlZIpHIEhdhV5CsH7fPNoencUe8LAIeqK99hV0TCMUypes3mfzbf+TmtWE8ew4R8niYGRsjc/5LIv9RpSsQw/ftN6tGexp2NU9flzxSltrNFSQKFaXCfGaOi/bveHvgTWKBGL+a+IQb5nWKWhFLmjXjfO1rjdHzzzAaLE5eD1JJGYbB8PAwiUSCUCjEtWvXeP7550mn02iahm3bXL9+HUVRiEQi7N27F3g6B/WTxO0vlzqitv61hUCRgvTkNFM//RdSv3ifia+v43vldYb+zf9CxOPBe+cOwV/8kumvvsb8f/6eoWiEtpPPVQMb3UdqZWp9EyJARA8ihETXS1yY/IqKVSLijXO28DnT2jTSBk9Zw1MIEhIRfIpv0fj+jPfxugzwQgja2toYGBjg5s2bRCIRTpw4wa1bt2hvb+e5557jzp072LbN4OAge/fudSdGF5cNIoQAaWNXK5AjAKNQIv3lRWY+/hzP0C6e++H3Gfzeu4CkvVwm1bebb/6vv6I0NoV1fxxOHASfBzdd+lJapdWPEWEg2kc4HyRVUZg3Fvh87ByKrbEQSGF4DFTTi4KCtxIgrIXxKm4EfJ01CxMhBJqmMTg4iK7r9PT00NHRQTAY5MCBA/h8Pk6fPs3CwoIjdFxcXB4SoSCoqaoUiPV0sPPf/AEiHiOxdxc9Lx7FFtX8XJ5AkM7Tr1eFx0KWxPNHUHxeXCnSmuaFbpIOXt/1BrOz09xI3cC0rVqaeknZKGPbForlQUFlKLqfdm/yCbV8ayJklcU3HlCGt1ElBktruLueWy4um0O9OJaqqqiaBkIgpKztTspk5lL4Q36CiRhSrQocKUFYFmapjGLYaAEf+Lybk0plm2EYBqZp4vV4UbWqjVdioZsVbpVuMpWbomyXsaVEtW0kFgAKHgQK3b5+9iUOEPIGn+TP2FI8UJg0UxcY9epvzcJkLedwcXFZnUZhotWEyeI4rWUJpprJVtZjugBhVa30zsKuHgHvDskl6LpeEyY+R5jUUzOXZAlTGFQVjDV36pp1XaAAAi9+vMKH4s51DutO9NgoKFZLmeLuUlxcHo7mMtdCCCdmpO6aVUs0v4iq1KK667nTXVZjScoyWe3JoAzV/l17vzEusXGX53bvEjacNbiVIGkut/koK7O57rMu24VWqmXbtp3/lhzLGuYwsZjcYzPHyXZaHNb7WC4r+t5A/X2lxXuuMFnGqsWxLMtaorpqfrAbaSVIWlWKW08w42qfu8LEZTvROH6klBiGgWVZKIqCaZrOZ9XYE7FYRVa0HgutJn53zFSRUmKaJlJKLKtqCxGN3m6tyvM2v/cQXbld78OKOxMpJZVKZc0xKK2+D9UdzGrffVDHrjYotutNcXn2aH7OTdOsehLVbCWNi7p6ni0pBLa0l3zWOO5Wqpy60r+fFerCutHuu9H5ab0038/txKrCpDmSvdkvu/n4Vu/VhUkjjTm7VurU5rxejdd/EjdjO9787c7TqJZpbLNpmiiKUjXANx4DVSO7AEUqy4TJg5KsrvdZfhr7cS1aD9u20TQNVVUf6/hebd57mllRmCiKsiTH1koCofl1Kx72YXS9xFy2M6t5U3o8Hjwez6rP/moLss3kaZgA1/Kb67/Dtm28Xu+KwsSdb9bHAw3wqz3ozXmENoNWgsO9qS7PAis98w96/h/X+NiyDjT1BFsP0Tx3jnl4HGHSqjNXC2B8WNfflXYb7k11cVkfj9Jr8lGxaW2seUHLVZyy1nyqx7Tzehruz0bQYO0/rn5c3TDYyHqEy1q8tBqvkc/nMQyDtrY2yuUypmkSjUbXdC0Xl21JQxGNh56cnvaCHLW2y6X/WxUpBbbtZPWvefqu0gmPs38a7sfTdGvWHWdSn+wty8KyLHw+n/O+lJJSqeToIR3juxTV+Klar1TKOleuXkFTNUyr6rWCrJ7zlVdPgVxMxGboBrdvDzM6MsK3v/NtvvnmBtPTU7z77rs1LwwFt9y8y9PMA4VBbW5cki69WbPTnA59Dedb6a26gf+pmcVY2lSnK1bpV+F4MdT/1BbDYnEhW0202eLLa+3r5oQFDV+RsrGD6yW2lFo1TLn4bsMhrX7jyr9vdU++9bCS3byZDQUtSimZnJxkYmKCl19+Gah6nly4cIHz588TCoXwer3s2bOHY8eOce3r62geleeeO4KUUCqXuX79Bv39/VQqFRRFoVKuMDo6wquvvbLkB9jSJpPOcH9khHK5zNmzZ7l/7z62XRVehw8fZmhocCM/w8Vly1NdpNkIUS0CvyQYuznQfS2TnASn7vmSmC+WxFNsVTmyTAMimv6CsxhdjbowEY3917DTW+Jg1Hjytc7JcunfRaHQoN6XDQeL2mcNq+7GQ0RTrMt6N6OboVp70DnWvaYXQmAYBmfPnuUnP/kJqVQKqCZO++qrr7h69SqWZTE+Ps77H3xARTc4/9V5Ll2+Uvs+aJpKV1cXR44c5vjxY+zfv5+KqVPfYthUH5pCscTUzAwL6RTFUon7I6PMzc9x7PhxMtkMv/70U1Lp1Hp/govLU4NomFwsoCIhZcG0BbOGRdG0sQBLSOz65OPkXGHZ5FcNdBTYono+WTu9FKADZcBq/O7Wd+B6OBxBIqgAWQkztmBKQtqGImA1z6HN/eP00wodJsEAxmYy5HVzuSRoaEM9st4WiwsHZ6fYfPwWY0Nqrvn5ec6dO8fw8DBfffUV77zzjhMIdODAAd577z3m5ub48svz6IZBqVwGsSi3hKJgSZt8vkBnVycTN28yPj5Oe3t79XPAsmympqf57LPPuHDhIlJKRkZH2dHXR0dXJ7Ozs+zZu4eBgQFsuXgfnrbtuYvLashFhT4SmE9luTY+TUo3CEibw32dDHZ3VrMGi6ZHv5UgEIsvrNorlWpZ37l8GY+mkvB6FsfRetRnTzMScqbBtbv3mCtZGBJieNgz0EtfPICirNIFTj81dFbTTkICE7NpAkEvIZ9nzdpIpfG0D8FGgsPXy7qESd1OcvXqVaSUvPzyy3z22WecPn0aAFVVCYVCdHZ2EolEmJmZxTKt2ta0eo6q7BZ4PB7u3L3Lla+/ZnZ2hv379y+maxGgKIJoJEJ7e5KJiQn6+/vZt28fvb29/PznPyeXy/LDP/0hyWQ7li0RUqA0DyYXl+2AlM7knspkGJmYwhOP0t0eRfP5mMsXkFIQDgVQFUHZsNAUAarCQrZANlciHA7RFglg6JKyLinpJUzbJBkL4tc8TGR1bk/O4/d5GIx46Yn6Cfn9z1SuyJIhGB6ZwhdtJxgJMzYxR06XyD29BAIBymWTQrFMNBygO6xRtGE2lUU3FCKRIPGwwJAmRaO6YC4WDIKaRiggmE3pZC0fBmotF7EkKxRmUhVy2QJer5ehZBDLozCX1cnkc4RCIbojPoIItJZGobX/tsfhQbZuYXLt2jX+6Z/+iWQySTQa5eLFi1QqFaBqN7l06RK/+MUvCAaDeL1evJqGtCXYdeVhtSN7e3dw7949bty4jm3b9PbuIBaLIakeqggFj9dLqVRi//59JJMdzMzMoCgKQ0NDlEpFJqcmef/9WX7vnXfwejSnxrWbsdhlu9BoCLYR6LZNrlRGaCoxTaUnHEY3JbfG5unoaqMtmeDm8BR+FQyhYAhBMBjgxsQcAaCUq+DxRejtCpMrlpiYy7CzK4H0+rAUgVQFmldDUZXF8I269mabD6mK0ChYgni0jbZEO9Njs5SLZW5MzFLRy/T1dIOiMnr/HqXeHqYWsoSDXjy+IJfujuILBfGFAsxncxQKZeLxDsoLYxzY24VH81A0bSpSIoFSpcxnNyfImz462sPEvColKfjs6jCWL0Ik5GFkep5vrs/w5qF9tIVDT7p7Hsi6hIlhGPzqV78ilUrR19fH/Pw87e3t3Lt3jx07diClJBgMkkgkCAaD9Pb2omoqSq1aHFQF0vz8AlLa5PN5XnvtddLpNBcufMWJEycwDAuPpmIYOsPDdymXyxw7dpxSqcjY6CiTU1Ps37+PQCDA1atf09HRgaKIZTWuXYHism2oe9PUXnu8HjyBAP5ACFX1EAwFyRYmyExmiZTg/nSKiF9jeiEDXh+dXQmmp2eJqB4quTIdHRqxaAdlvcj9qQU6wj56k2EyhSBhv4fOeAgfDUZ5tr0cQcqqDals29wfnSCTKxPxBdg30MndhRTp1CyHBjuJx6KodgjpVclk8/R39BBtC3DrXpnJvEEsoZHL58hmirR3djAzO8POvjhdXUFUYSJldV+iKiq29DK/kMLUC9jJduKqwlfX7uCLtrGjK0omncGYneDU3kEQoS1vv1qzMLEsi+HhYW7cuMEPfvADdu/ejWVZ6LrOmTNn+MEPfgDAzp07OXXqFFB1scvnC0DV9Q6qAunu8DCRSITBnQMcP3aMTDbLwsL70Hu/AAAYuElEQVQC5XKF+/fuMTQ0hK4bmLrOyy+dZHj4LpVymd7eXubm5tg1OEihUGBifJwdvb1o6tL8X64QcdlW1HYGigAhbSLBIAP9vRzo7SIsQBPQ2dHGjckcM7N3SLSF6GqLkJ5bwKspdIZ8JHf1kPD7uXtrjIAm8CkCj7RRbQNN2niontt2PJgaaNT/N09o22Go1dTjHkwCwqIt6qWvM0RvMElnPMh8dh6paUSEQkQIDvT2UBLwjbSoyGoNRtOy8GsqXkz8isD2eQh5FfwCPFKgAT4FzJrjg8fj5dDePsLxANOpChdvjhB5fi+KFES8QbpCQfpiAcI9HYQDoafCdrVmYaLrOp999hmJRIJ3332XeDwOQCqV4sc//jHvvvsuPp/PSQ7p2D8cL8Sqq102m2N6aooD+/cTi0XxaB5i0RjvvPN7zM/N8f7773P0uaMcPXqU3buH8Pt93LxxE4+mEQoGMXSdXDZLqVSiUqoaDLdw/7q4bA41I7yqCPRymcmJGdRigV3tcXqTCbo7ElwdnSeTnufAYDs7u9qYn56naIIwdAI+hZBXI6ApeJXq5OYREp8KqqhOBNl0mgndQMmF2JmIEw6Hl16/znZUeQlQpUVQEwz0tDPU9/+3d6a/bSNXAP+RFC9Zhy3Zkm/Z8bF2TidGNwiCFtj+F/0r+6lF0QIFulsULYpukXU2zuawN7YTW/UhXxIl8eoHmQytSLbkK1KWvy+WyeFwOOTMm3nvzZsBUoKADCjYqI6DAignQt0GjotFln/+QE9eZ3f/iKnpHAgCxpGFaNsIjovk1vKQgGS8h3ebBSJlmYFknP0DoxbMU45QMiuIEZgYHccoO8iOhOIIpHSdiNgdu2W2LEwEQWBwcJD5+XlfkHhRN588eYLruiwsLCDLsn9NLVikzMLCfXRdx7Istrd3GB8bJ5vN+DOISEQim8nQo2vomsar1z/x4MF90qkUpZJBNKojyxHi8RixWA/FYm22Mzf/Fblc7irrIySkMxFqnj39vb1MDZcomjamUcS1Y4jAUFJlYayXUp/IbCZFf0zHnR5jc6dA5egA2wBZUbk1mEbVdOKygNCbQJkYJpWoqbX6e3QqlSpGqYzV6zSXGY3WdnQ7LiTlCHdyEwwk4sQEAckFwYHx9ACGHkNXVCShdkwV4O7oEHsHxzjFMg9yw0wMpSgZJplImqrtku5RiOaGyEZVdGAqm+TFuw0qFQfLjWGbNqWDYxQbvp4YZUzXSM6P8+7DNo5Rouw6iANxELtDfgtui0sjHcdhf38fTdOIRqPAx82zisWaN4LjOIiiiK7rp0LMF4tFJElCjijs7OwSjeokknFcJ7BGxwXLttja2uLo6Ihbt26hqiqWVTtm2zZ9fX3s7OyQTCYRBIFIJIKqqiiK8umDhaqukC7GNE2q1SpyRK593yfrDqq2Q7FSoWpZSLjENRVNUTGBUqWK6zhoioIsidguGOUKhlECXGLRHiQvakREwjnZHEoWBURJ4qhqcmRU0EVI6pof+r6263ln0IottJU01WoV0zTRNA1JlGr9jwDlqoUgimgREelkvY7p2DiuSyQiIYk1ZwjbhYrtUDYMbNdFjeoosoRp2bXzgoAUERArNmpEQozUrts5LiJFBDRV47BqUzQMVNulR4+S1COYosBxxcI0DGzHIdWjoZ5Eb79MoI+bcA1uWZg0ot14XK5Ts51IntO25+DFp/l4eTuOg2VZCIJwatZzkTKEhHQLvjCRZRRZ8deZBE0Xwc6lfrmcEDxxMq4VqA3eHNetLYgTAjs2urWFi5Zbs8FEXM/g72vYOoJrEybUFgoCOE5NlSV+jHJyOvIJH+vbu4230NqfQZyckILXuLV7eFnZJ6cigntSxzY2Ei6C7/wQ7PE65R00oy1vrnojd/2eJmchCCdvJzBf84zyZ0Us9mYgzfIPBUnIF0/Ao0poshK6YSvwQrG4QmBVb+2PdHK+/mrx5B6+AAmG/GjCVTsZnRcLqlmU5ODxVvZXCm6y5+L6dSt5/dNJJQgngtYNXFsvYMX6MjW4vSAEBgDCyTs4ubuHd8zBxdueuRuM71AnTFqR6I12OmxlpBBM1+zaRvcP7u4YzkJCQqgNg+ubQSMDuSc/6ryxBLfWeQaSnazP+thREuwchfqus+7W19Qkz9qy+6wBaNub6QnevK05boPf/mTlyjxJxZMQXe7JyncXNzAlFTpJ39iACwV6bDWKZH36+t9npbvI+VZoR6sXCq6QdrmW7ysY2qQVS+xJ2lpJPE8gz+W3FnbFj+Tt5X8iefzwHc3iR3WAa3Ar9dZqmpbeQQNV36nfzfJo0WruBt9Ffb5Bid/h3dEnwuSsxuAZ2OvTXse2utc1C+mGrUdDupeLfF8tbW7VJFtPVdwwvmCjsgRUzMLJqLdmMzmd1je1nFeOG3Yz8rQi521j3Eoax3E+0bKcee8mv5vcgIYV4x0XTqvZgmUN7uV06hnc6xvgXkW/2HBm4j2k4zinKtzz3vKQJMk3ktcXxltv0kohG6VxXfeU4Gr1OrieCr8pIfQ5hN2XOgPrxoGD9y5s28ayLBzbwbZOQjKe6s1cHF9Z1ZhWnr9eO9bs3E0G6QraYutppgqvt5ecpwHxDPCt9DNncda1Qe1iI/y1eIFyNTIh1Nun2/2uW2nf9WW5CJ8Ik3rjVFCC11ecl9bfBCtwvB0vr0Z2E0EQTja/+tRYFtzxsVF5upkv4Rk6hW6sy+D3XmtvLkIgcvDHhDUNu9vpuo8LcBPCxOtbRFG8lDA5VzXfpIzwqSDy0pxlN/YG+FdRtiDe4P8yNJyZBCs7KA2Dnbt3rP66ZudaJbg+pb6yzzLkn3U8JKRb8L5hy7IQRRFJFJFluXnHcIMC86ba1UVtsu2k94SIpmlIknTtz9ZOGc/yXG1HLXfTNDXAtzK7uIwx/TyCEjo4WwkeD92FQ75U/Nm5JCHUDeI+W5mazYJu2JvrvHbfqleqNzhuR5NyWS57n5ssa7tcyJvrOmlkkAoe69SKvEpucuTxpddnp47imtHI87HZO2p30fBZeZ2fwcUuC7kaWnLSuML8L0LLwqTZhxtUSxmG4Qd7bPbxNrOReHh5mabJzs4OmUzmUjrNbuRL7+Bvkm6qy/oGfVYD92yZnjG5WCyi67of6qieoPrMG5UHj3t5NlenBW/+8djR4RGyIqNp2hezDqzddSOO41Aul5Fl2Q9B00zlf15+9WkrlQqyLCOKov++G3l+XcWM57K0NTPxDPE7Ozuoqkpvby+u61IoFFheXmZjY4Pf/va3DAwM+F5exWIR0zQxDIOenh6SySTVapUXL14gSRL37t1r+GClUolvv/2W27dvc+/ePf/ev5TZSUjIebx58wZVVdE0jR9++IHe3l7Gx8cRBIF4PN5QsCwtLaGqKjMzM37HF2R3d5cPHz5QqVR8gVWtVhFFkVwux+Dg4Knr3q29o1KpMDMzQzweBz5uV9HX10d/f//1VcA1EBTS9S7G5XKZo6MjNE0jHo/7RmtBEHj27BnJZNKPKWgYBi9evCCVSjEyMuKHgnr79i2FQgGoGeBN08SyLKrVKouLi34devesVCoYhkE8HvfVckdHR/znP//h0aNHpyM7f2baihrsui7VapW1tTVWVlZYXFxE0zT++Mc/+h+bqqr+NYZh8Ic//IFIJMKHDx+Ym5tjcXGRlZUVlpaWmJubw7Zt/6UUi0W+/fZbNE2jVCrx448/srq6yvr6OtFolPv379PX13f1tRAS0gG0M0ja29vj+++/xzRNUqkUb968QZIk3rx5Q09PDw8fPmR8fPyT67zzk5OTyLL8iQ2yWCyyublJuVxmd3eX3d1d+vv7yWazWJZ1Kq9isUg+n2dtbY29vT1mZmYA2N7exjRNP7p4t+BpV5aXl8nn837d7O/vo+s6giBweHjI9PQ0Dx48QBRFqtUqruvy8uXLk63K/8fk5CTr6+tsbGzw8OHDU/W7vb1NPp9HkiRev36NoigMDQ3huq5fv4IgnERY32ZnZ4etrS36+vrIZrOUSiXW19dZX19vOBD/nLQ9M1lfX8e2bUZHRzk6OuLg4IDnz5/z4MGDUx/1zMwM1WqVZ8+eMTIywqtXrxgaGkKSJCRJ4le/+hXDw8OnjOqGYfDPf/6T6elp3rx540cf/utf/8rs7CxfffVVOCsJ+cXQzHPnzZs3fP/990SjUQ4PD/n5559JJpNYlsXq6iq3b9/2R7hQG90eHR35HaKnNSiVSgBomuarvfL5PHt7ewwODmIYBu/fv8e2bba2thgaGmJkZMTPV5Ikent7yefzFAoFtra2WFtbQxRFhoeH2d3dRdf1jho9n4ckSacGrPv7+wCkUini8TiWZTEwMIAsy7x48YLt7W0kSWJlZQVVVZmamqJUKpHJZLh//z6JRALTNP01ecvLy8RiMcbGxlhaWkIQBLLZrF/PQeFerVZ5+/YtW1tbzM3Nsb+/z+bmJplMhomJCQzDIJFINJxhfg7aFiaFQoHnz5+zuLhIPp/n+PgYqEU5LRQK/kc7MjKCqqpks1m2t7eZnJwknU6zvLzM+vo6yWSSjY0Nkskki4uLfhh5WZbJZDK8fPmSbDZLPB7n4OCAqakpEonE1ddASEgH0kyQ7O3t8fz5c16+fMk333xDb28vb9++JZlM4jgOkiQxMjJCT8/HPcOLxSI//PADw8PDlMtl1tfXqVarfqe3sLBAKpXyVShra2uYpsnR0RH7+/uUSiUsy2JmZuaU0FldXeXly5d8+PABTdOwbZu3b9+i6zqmaVIqlUin010jTARBQFVVbt26BdTUdX/605+YmZlhfn6enp6eU4Pf7e1tNjY20HWd9fV1RkdHyeVybG1tsb6+Trlcplwuc//+fe7cuYOmaeTzef73v/8hiiLHx8cYhsHq6irLy8s8fvyY/v5+bNvm1atXrK2t8eLFC8rlsr8dx/r6OsfHx1QqFZLJJJlM5jPX2kfaEiaRSISJiQlKpRKxWAxd1ykWizx//pxbt24xPz+PaZrIskxPTw+SJPHo0SP+8pe/0NfX5+tSV1dXGRkZIR6Po6qq32hEUSSVSjEzM8PKyoq/Cnh0dJTbt2+j6/q1VEJISDfgOA6Hh4fEYjEGBgYwTdPXo5dKJb+T++9//4umady/f9+/Lp/P+0ZyRVGIx+MkEgnS6TTKyX4ZUBvMKYpCT08PlmWhaZq/sV1wJ9VIJIIkSezv7yMIArlcjp6eHnRdZ3R0lPHxcQYGBrpGkNTjOA5LS0u8fv2aWCzGjz/+SDQaZWJiwn+mSCRCNBolEolg27a/jbnnQLSyssLt27dJp9N+vUWjUWRZJplMoigK0WiU3t7eUw4RglCLlJ5IJMjlcsiyzMDAABsbG/T395NIJHj27BnRaBRJkvwwV59ba9N2CPp0Os3jx4/J5/Nks1mWl5cplUpsbGwgiiLj4+NMTEwANYNVsVgkGo36U7KhoSGKxSJTU1PMzs6e8oCQJIlEIkE0GiWVSlEul31jomEYvzivrpCQevr6+pifn2d/f9/fKK6vrw9ZlnEch0ql4ts8PLwtHCzLQpZlZmZm+Prrr1EUBUmS/AgW+Xyezc1NKpUK1WrVHwF7zjbB2U4ikSCZTAL4HagoiiQSCebm5hgdHUXX9a4cAFarVZaXl327biaTwbIsXr9+zatXr1hcXGR0dBTXdTk8PCQejzM2Nsbw8DD7+/sUCgVmZ2fZ3d3l4cOH5HI5X41vWRaKonB4eMjR0RGKonBwcHAqNJUgCGQyGQqFgv9uPFv04OAgk5OTrKys+E4AneJF15Yw8R52c3OTt2/fomka//rXv7hz5w6xWIyXL19yeHjI7OwsgK9rVVXVFzKWZXF0dMTe3h6JRAJd131PrUgkQiaTYXt7m83NTUZHR30949jYmD/9DAn5JSIIAolEAkEQkCTJ3zyrWq2ytbWFJElkMhm+/vprpqam/Ou81d7edd5sIxhCI+jiX6lUsCwLy7IYGhri9u3bDe0ltm2jKAqiKHJ4eOh3hNepw2+l02y1Y22UzjAMfvrpJ969e8f09DTT09NAbUahqir/+Mc/+POf/8w333yDbdtUKhUWFhYolUrkcjnGxsb47rvvTrYsVxqGTDFNk0qlgq7r3L17l8HBQcbHx0+p8TVN4/DwEMuysG2bQqHA9vY2d+7c+ST0SScIErjAosXd3V3+9re/MT8/jyzLFItFfve732HbNt99950/IvICQ25tbfn62UqlwvLyMpIkUSgU+Pe//81vfvMbBEHAtm2KxaLvsphIJDAMA9M0icfjTE5OXvnDh4R0A8E1W8GYeQMDA8zNzXF8fOy768/MzJDNZonFYg1DE9m2jeM4vrG3UqkAoKoqqVSKJ0+eEIvFeP36NZubmzx9+pQnT54Qj8dPdVrVapX3798DcOvWLRRF4f379/T39/vbancbjuOwvb2NbdvMz88zOjpKJBLh4OCASCTC9PQ0iqKwtLSEbdscHBz4dipJkiiVSpTLZd/+W2/zUlWVX//61zx//pxXr14Ri8VYWFhgZGTklBuyZ4/Z2toim80SjUZZXV2lUCgwNjZ2yqDfSbQlTDy94Pz8vC9MRkZGMAwDx3EYGxvzP2IARVF8CW4YBvl83jdSOY7Du3fv+P3vf8/CwgKapvmeCjs7O6RSKWKxGJIkoaoqL168YG9vj6+++qpr9bAhIRehvtPwZiCpVIqBgQHK5TKO45DNZsnlciiKguu6lEol34A+ODhINBoll8sRi8U4PDz01zlIkoQsyxQKBQ4ODkgkEszPz3Pv3j0GBwdZWloin8/7bsgPHjygr6+PiYkJ9vf3GRwcJBaLkU6nGRkZIZ1OU6lUOq6zOw/XdYnH475KT5IkKpWKryYUBIGJiQn6+vp8m9Hs7CzpdBpd17FtG9M0efToEaIo+vYRL2+vzsfGxhgaGiKVSmEYBn//+98pFApUq1Xu3r3L1NQU0WiUBw8esLe3Ry6Xw7IsJicnGR8fZ2Njg6GhIV9odQptCRNJkkin02SzWX+a+/TpU6LRqD8Fj8VivkFIVVUeP36M4zjs7+9jmib9/f3+talUitXVVVRVRVEUMpkMjuOgaRp37971X9ro6Cjb29sUCoWu+0BDQq4aTdP8wRzURtSDg4MMDw8TiUT8Ua4kSei6jqIopNNpX83lzVK8NipJEpFIBFmWiUajJBIJ+vv7iUajlMtl1tbWsCyL4+NjPzCiLMtMT0/T09ODoiioqoogCGia5q+wv4pItDeJIAj09vae6mMkSfIFC9SEgqeO8tbVAIyMjGBZFqVSiWg06i/W9ga+ngqwt7eXsbEx+vr6/DUstm0jyzIHBwfouo4oiqTTadLpNB8+fCCVSpFMJv1yDA4O8vTp044bVAtuYC52niHHU10FwzHUB2H0jtXrCs/bWMujXC4jSZLvYeLlX61WKRQKDAwMhIb4kC8e0zR9m0izEagXitwwDAzDIBqN+mtJWmnL9eeDW03Un/P0/J4toF7NEtzQKeid2alUq9VPPNQacdGYZpZlYZrmKbtJsI48vP89+4snrM8qj/feO8GDK0jbwuSsym0lou9ZeTfL61SBO6jyQkKui1aESaN1KNfZPrxOLCg06geSQY+k6y7PZfA2xzqv874oZ8UmbBarq5W6ajdu2E3StgE+OCOBxh9WM4IGwWYSOph38FzwWKe4woWEfG7q21/973ZoNWJ3swCUnS5AmnFd/UmzPJv1k60Ebezkum07anC9Z4lHOy57zWY13rngaKf+PvXpQy5HJ3+cV0E3h/M/r+ytjGrb6ShbFRatlKUb2mezKANXwVmCxLt3o3PnaXwanbtoWa6atgI9Bv8Gf1/FdPssldZZs5iQkLPo5m+lnbJfRsVcn89Zx+vVWvX3Pqtc3Uz9c5ylZWklr3bTNLpP0O7cCXXcVJh4bm6t7jfcSDV1WTqhgkJCPgfeWhDA/3sWV9WhnG7HAvXbKDba1gTXDZy4mpH+dbd9b71NtVpt2VZxVWW6ytlQvdmh2f1uYqbY1ADvBWrzPDzOKijwidAJBUH38CW/q5tSt3yRdeh+KkwaJvPqWHDxhEm318d1ququKl/Pq/YsDVFwket1t4VPhIlXSMdxME2zqQtvowKfl66tgp1jiAq5Or7keu5mYdLKaPhan69OmDQril+EgDC5LDfxTX7u+r1KbU4n2KnOdA1u9H8zrvpBOs2j4aL+5iGfj5t8Z1d9r/OcW26m42iu4grinvHfpe5+je+tlfq9iQ76Klx96z356rmpPqutdSYhISHN6WbPsZCb5ao6/U4a5DY1wLfbMDrhYUJCPidhGwhplav6Vjrpm2sqTDqpkCEhISEhnU3nBs8JCQkJCekaQmESEhISEnJpTgmTULUVEhISEnIRwplJSEhISMilCYVJSEhISMilCYVJSEhISMilCYVJSEhISMilCYVJSEhISMil+T9/oJHy4Jwx+gAAAABJRU5ErkJggg==;movable=0;resizable=0;rotatable=0;deletable=0;editable=0;connectable=0;" parent="1" vertex="1">
                    <mxGeometry x="90" y="70" width="614.97" height="470" as="geometry"/>
                </mxCell>
            </root>
        </mxGraphModel>
    </diagram>
</mxfile>